<?xml version="1.0" standalone="no"?>
<!DOCTYPE svg PUBLIC "-//W3C//DTD SVG 1.1//EN" "http://www.w3.org/Graphics/SVG/1.1/DTD/svg11.dtd">
<svg xmlns="http://www.w3.org/2000/svg">
<defs>
<font id="icofont" horiz-adv-x="1000" >
<font-face font-family="IcoFont" font-weight="400" font-style="Regular" units-per-em="1000" ascent="850" descent="-150" />
<missing-glyph horiz-adv-x="1000" />
<glyph glyph-name="phone" horiz-adv-x="1000" unicode="&#xefbb;" d="M391 497c-121-70 63-414 195-338l122-211c-56-32-103-53-167-16-179 102-376 443-370 646 2 71 43 99 98 130 23-40 98-171 122-211z m50 5c-13-7-30-3-37 10l-115 200c-8 13-3 29 10 37l60 35c13 7 30 3 38-10l115-199c7-13 3-30-10-38l-61-35z m315-544c-13-8-30-3-38 10l-115 199c-7 13-3 30 10 38l61 34c13 8 29 4 37-10l115-199c8-13 3-30-10-37l-60-35z" />
<glyph glyph-name="location-pin" horiz-adv-x="1000" unicode="&#xef79;" d="M481-66c-19 25-38 51-55 76-62 87-118 177-164 273-22 47-43 96-53 147-19 97 4 184 69 257 63 72 144 104 239 100 132-5 247-105 274-235 11-53 8-105-9-157-33-104-84-198-143-288-42-65-88-127-132-190-1-1-2-3-4-4-2-3-12 7-22 21z m165 552c3 75-59 145-134 149-86 5-153-55-157-142-4-75 60-145 136-148 84-4 150 56 155 141z" />
<glyph glyph-name="location-arrow" horiz-adv-x="1000" unicode="&#xef78;" d="M935 777c-111-286-222-572-334-860-2-5-5-5-7 0-7 16-14 32-20 47-46 108-92 216-138 324-2 5-7 9-11 11-119 47-237 93-356 139-1 1-3 2-5 3-3 1-1 4 4 6 288 113 574 225 859 337 5 2 10 4 10 3 1-1 0-5-2-10z" />
<glyph glyph-name="location" horiz-adv-x="1000" unicode="&#x13b57;" d="M509 850c126 0 228-102 228-227 0-61-78-250-235-568l-29 64c-127 284-191 452-191 504 0 125 102 227 227 227z m-7-114c-62 0-113-50-113-113 0-63 51-114 113-114 63 0 114 51 114 114 0 63-51 113-114 113z" />
<glyph glyph-name="location" horiz-adv-x="1000" unicode="&#x13b56;" d="M943 45c0-153-274-176-438-176-164 0-438 23-438 176 0 113 153 155 299 169l24-87c-137-12-236-44-236-82 0-49 157-88 351-88 194 0 351 39 351 88 0 38-99 70-236 82l25 87c145-14 298-56 298-169z" />
<glyph glyph-name="folder-close" horiz-adv-x="1000" unicode="&#x13b31;" d="M549 588l-19 37c-2 4-2 8 0 12 2 3 6 5 10 6l370 0c29 0 53-24 53-53l0-18c0-4-1-7-4-9-2-2-5-3-8-3-63 0-359 1-359 1-18 0-35 10-43 27z" />
<glyph glyph-name="folder-close" horiz-adv-x="1000" unicode="&#x13b30;" d="M963 508c-5 2-11 3-16 3l-355 0c-37 0-71 21-88 54l-32 64c-2 5-5 9-8 14-19 25-48 40-80 40l-329 0c-15 0-30-6-40-17-11-12-16-27-15-42l48-575c2-28 26-50 54-50l813 0c27 0 50 21 53 49l32 405c2 25-13 48-37 55l0 0z" />
<glyph glyph-name="folder-plus" horiz-adv-x="1000" unicode="&#x13b35;" d="" />
<glyph glyph-name="folder-plus" horiz-adv-x="1000" unicode="&#x13b34;" d="M417 717c37 0 66-30 66-67l0-83 350 0c37 0 67-30 67-67l0-425c0-37-30-67-67-67l-700 0c-36 0-66 30-66 67l0 425 0 150c0 37 30 67 66 67l284 0z m83-300c-8 0-14-5-17-12l0-5-1 0 0-1 0-98-98 0c-9 0-17-8-17-18 0-8 6-16 15-17l2 0 98 0 0-98c0-10 8-18 18-18 9 0 16 6 18 15l0 3 0 98 98 0c9 0 17 8 17 17 0 9-6 17-15 18l-2 0-98 0 0 98c0 10-8 18-18 18z" />
<glyph glyph-name="messaging" horiz-adv-x="1000" unicode="&#x13b67;" d="M722 514c126-10 233-98 267-220 34-122-12-253-114-327 18-34 46-61 80-78l0 0c-5-3-115-57-203 25-24-4-49-6-74-4-108 8-203 72-251 170-47 97-39 212 22 302 61 89 164 140 272 132l1 0z m-26-333l-133 0c-7 0-14-3-19-8-5-5-7-11-7-18l0 0c0-15 11-26 26-26l133 0c14 0 26 12 26 26l0 0c0 14-12 26-26 26l0 0z m161 115l-297 0c-7 0-13-3-18-8-5-4-8-11-8-18l0 0c0-7 3-13 8-18 5-5 11-8 18-8l297 0c6 0 13 3 18 8 5 5 8 11 8 18l0 0c-1 14-12 26-26 26l0 0z" />
<glyph glyph-name="messaging" horiz-adv-x="1000" unicode="&#x13b66;" d="M316 804c151 0 279-111 300-260-153-37-261-175-261-332 0-4 0-8 0-11-13-2-26-3-40-3-18 0-37 2-55 5-90-85-202-26-202-26 34 18 61 45 80 78-108 77-153 215-112 340 41 125 158 210 290 209z m-27-334l-133 0c-14 0-26-12-26-26l0 0c0-7 3-14 8-18 4-5 11-8 18-8l133 0c7 0 14 3 19 8 5 4 7 11 7 18l0 0c0 14-11 26-26 26z m163 115l-296 0c-15 0-26-11-26-26l0 0c0-7 2-14 7-19 5-4 12-7 19-7l296 0c7 0 14 3 19 7 4 5 7 12 7 19l0 0c0 7-3 13-7 18-5 5-12 8-19 8l0 0z" />
<glyph glyph-name="exit" horiz-adv-x="1000" unicode="&#x13b13;" d="M479 316c49 0 81 34 81 85l0 363c0 52-32 86-81 86-48 0-80-34-80-86l0-363c0-51 32-85 80-85z" />
<glyph glyph-name="exit" horiz-adv-x="1000" unicode="&#x13b12;" d="M479-142c-263 0-479 216-479 480 0 127 50 243 128 323 70 75 183-11 107-96-55-59-90-139-90-227 0-185 150-334 334-334 185 0 334 149 334 334 0 88-34 168-89 227-76 85 37 171 107 96 77-80 128-196 128-323 0-264-216-480-480-480z" />
<glyph glyph-name="folder-remove" horiz-adv-x="1000" unicode="&#x13b37;" d="M417 717c37 0 66-30 66-67l0-83 350 0c37 0 67-30 67-67l0-425c0-37-30-67-67-67l-700 0c-36 0-66 30-66 67l0 425 0 150c0 37 30 67 66 67l284 0z m199-416l-232 0c-9 0-17-8-17-18 0-8 6-16 15-17l2 0 232 0c9 0 17 8 17 17 0 10-8 18-17 18z" />
<glyph glyph-name="folder-remove" horiz-adv-x="1000" unicode="&#x13b36;" d="" />
<glyph glyph-name="link" horiz-adv-x="1000" unicode="&#x13b4f;" d="M434 123l-57-58c-45-44-118-44-162 0-45 45-45 118 0 163l162 163c44 45 117 45 161 0 14-14 23-31 29-49 4 2 8 4 12 8l75 76c-10 16-21 32-35 46-89 90-234 90-323 0l-162-163c-90-89-90-235 0-325 89-90 234-90 323 0l123 123c-49-7-99-2-146 16z" />
<glyph glyph-name="link" horiz-adv-x="1000" unicode="&#x13b4e;" d="M862 391l-162-163c-89-90-234-90-323 0-15 14-26 30-35 46l75 76c4 4 8 6 12 8 5-18 14-35 28-49 45-44 118-44 162 0l162 163c45 45 45 118 0 163-45 45-117 45-162 0l-57-58c-47 18-97 23-146 16l122 123c90 90 235 90 324 0 89-90 89-235 0-325z" />
<glyph glyph-name="pin" horiz-adv-x="1000" unicode="&#x13b85;" d="M750 175c-25-25-50-50-75-75 20-17 40-33 60-49 42-36 85-72 128-107 15-13 32-14 45-1 13 13 13 31-1 46-49 59-99 118-149 177-3 3-5 6-8 9z" />
<glyph glyph-name="pin" horiz-adv-x="1000" unicode="&#x13b84;" d="M443-67l475 475c15 15 3 29-2 34-39 39-111 36-190 2 0 0 0 0-1 0-98 72-197 144-296 216l14 14c16 16 16 42 0 59l-5 5c-16 16-43 16-59 0l-267-267c-16-16-16-42 0-59l6-5c16-16 42-16 58 0l10 10c72-97 144-195 217-292 1-1 1-2 2-4-32-77-34-146 2-186 5-5 19-19 36-2z" />
<glyph glyph-name="screen" horiz-adv-x="1000" unicode="&#x13ba9;" d="M565 50c17 0 31-14 31-31l0-32c0-17 12-39 25-50l75-56c14-10 11-19-6-19l-375 0c-17 0-20 9-6 19l75 56c14 11 25 33 25 50l0 32c0 17 14 31 31 31l125 0z" />
<glyph glyph-name="screen" horiz-adv-x="1000" unicode="&#x13ba8;" d="M63 850l875 0c32 0 59-25 62-58l0-4 0-657c0-33-25-60-58-62l-4 0-875 0c-33 0-60 25-63 57l0 5 0 657c0 32 25 59 58 62l5 0 875 0-875 0z m812-62l-750 0c-33 0-60-26-62-58l0-5 0-437c0-33 25-60 57-63l5 0 750 0c33 0 60 25 62 58l1 5 0 437c0 33-26 60-58 62l-5 1z" />
<glyph glyph-name="user" horiz-adv-x="1000" unicode="&#x13d06;" d="M499 850c277 0 501-224 501-499 0-277-224-501-501-501-275 0-499 224-499 501 0 275 224 499 499 499z m0-67c-238 0-432-194-432-432 0-240 194-432 432-432 240 0 432 192 432 432 0 238-192 432-432 432z" />
<glyph glyph-name="user" horiz-adv-x="1000" unicode="&#x13d13;" d="M635 250c82 0 154-59 170-136-72-91-181-149-306-149-123 0-235 58-304 149 16 77 85 136 168 136l272 0z m-136 381c93 0 168-75 168-168 0-92-75-168-168-168-93 0-168 76-168 168 0 93 75 168 168 168z" />
<glyph glyph-name="first" horiz-adv-x="1000" unicode="&#x13b2d;" d="M484 390l255 255c21 21 56 21 78 0 20-21 22-53 4-74l-4-5-216-216 216-216c21-21 21-57 0-78-20-20-52-21-74-4l-4 4-255 255c-20 20-22 52-4 74l4 5 255 255-255-255z" />
<glyph glyph-name="first" horiz-adv-x="1000" unicode="&#x13b2c;" d="M222 683c31 0 56-25 56-55l0-556c0-30-25-55-56-55-30 0-55 25-55 55l0 556c0 30 25 55 55 55z" />
<glyph glyph-name="last" horiz-adv-x="1000" unicode="&#x13b4b;" d="M261 645l255-255c22-22 22-57 0-79l-255-255c-21-21-56-21-78 0-21 21-21 57 1 78l215 216-216 216c-22 22-22 57 0 79 22 21 57 21 78 0z" />
<glyph glyph-name="last" horiz-adv-x="1000" unicode="&#x13b4a;" d="M778 683c30 0 55-25 55-55l0-556c0-30-25-55-55-55-31 0-56 25-56 55l0 556c0 30 25 55 56 55z" />
<glyph glyph-name="info" horiz-adv-x="1000" unicode="&#x13b47;" d="M463 377c-3 1-7 1-10 2-30 5-52 33-49 63 2 32 29 57 61 56 17 0 35-1 52 0 34 2 67-21 67-67-1-55 0-109 0-163 0-55 0-108 0-162 0-4 0-8 0-12l11-3c30-5 51-33 49-64-3-31-28-55-59-55-41-1-81-1-122 0-32 0-58 25-59 57-3 29 18 55 47 62 4 1 7 2 12 3l0 283 0 0z" />
<glyph glyph-name="info" horiz-adv-x="1000" unicode="&#x13b46;" d="M504 700c44-1 79-37 79-81 0-42-33-77-75-79l-5-1c-44 1-80 37-80 81 1 44 37 80 81 80z" />
<glyph glyph-name="groups" horiz-adv-x="1000" unicode="&#x13b3f;" d="M496 300c136 0 221-95 221-164 0-25-15-38-58-38l-326 0c-44 0-59 13-59 38 0 69 86 164 222 164z m0 283c57 0 106-50 106-116 0-67-49-119-106-119-57 0-106 52-106 119 0 65 49 116 106 116z" />
<glyph glyph-name="groups" horiz-adv-x="1000" unicode="&#x13b3e;" d="M193 301c47 0 85-14 113-33-57-47-87-124-64-166l3-4-196 0c-36 0-49 15-49 41 0 73 76 162 193 162z m606 0c117 0 193-89 193-162 0-25-12-40-43-41l-6 0-196 0c28 41-2 122-62 170 29 19 67 33 114 33z m-606 246c49 0 92-44 92-101 0-59-42-105-92-105-50 0-92 46-92 104 0 57 42 102 92 102z m606 0c49 0 92-45 92-102 0-58-42-104-92-104-50 0-92 46-92 105 0 57 42 101 92 101z" />
<glyph glyph-name="address" horiz-adv-x="1000" unicode="&#x13ab9;" d="M956 642c7-16 13-32 13-50l0-500c0-53-41-94-94-94l-750 0c-19 0-34 6-50 12 19-25 47-43 81-43l750 0c53 0 94 40 94 93l0 500c0 35-19 63-44 82z" />
<glyph glyph-name="address" horiz-adv-x="1000" unicode="&#x13ab8;" d="M94 717l750 0c51 0 91-38 93-88l1-6 0-500c0-51-38-91-88-94l-6 0-750 0c-51 0-91 38-94 88l0 6 0 500c0 51 38 91 88 94l6 0 750 0-750 0z m250-344l-125 0c-51 0-91-38-94-88l0-6 0-94c0-17 11-29 27-31l4 0 250 0c18 0 30 11 31 28l1 3 0 94c0 51-38 91-88 94l-6 0z m344-94l-157 0c-18 0-31-12-31-31 0-17 11-29 27-31l4 0 157 0c18 0 31 12 31 31 0 17-11 29-28 31l-3 0z m93 125l-250 0c-18 0-31-12-31-31 0-17 11-29 27-31l4 0 250 0c19 0 32 12 32 31 0 17-11 29-28 31l-4 0z m-500 188l-6 0c-50-3-87-43-87-94 0-51 37-91 87-94l6 0 6 0c50 3 88 43 88 94 0 51-38 91-88 94l-6 0z" />
<glyph glyph-name="camera" horiz-adv-x="1000" unicode="&#x13add;" d="M833 683l-132 0-51 57c-16 17-38 27-62 27l-176 0c-24 0-46-10-62-27l-51-57-132 0c-46 0-84-37-84-83l0-500c0-46 38-83 84-83l666 0c46 0 84 37 84 83l0 500c0 46-38 83-84 83z m-333-541c-115 0-208 93-208 208 0 115 93 208 208 208 115 0 208-93 208-208 0-115-93-208-208-208z" />
<glyph glyph-name="camera" horiz-adv-x="1000" unicode="&#x13adc;" d="M500 475l7 0c66-4 118-58 118-125 0-69-56-125-125-125-69 0-125 56-125 125 0 67 52 121 118 125l7 0z" />
<glyph glyph-name="next" horiz-adv-x="1000" unicode="&#x13b73;" d="M528 576l0-452c0-45 49-71 86-46l317 226c31 23 31 69 0 91l-317 226c-37 26-86 0-86-45l0 0z" />
<glyph glyph-name="next" horiz-adv-x="1000" unicode="&#x13b72;" d="M120 78l317 226c31 23 31 69 0 91l-317 227c-37 25-87-1-87-46l0-452c0-45 50-71 87-46z" />
<glyph glyph-name="arrow-last" horiz-adv-x="1000" unicode="&#x13ac1;" d="M803 717l5 0c31-3 56-28 59-59l0-5 0-639c0-35-29-64-64-64-34 0-61 26-64 59l0 5 0 639c0 33 26 61 59 64l5 0z" />
<glyph glyph-name="arrow-last" horiz-adv-x="1000" unicode="&#x13ac0;" d="M166 657l4 0c9-1 17-3 25-8l6-3 369-261c34-24 35-74 4-101l-4-3-369-260c-10-7-20-10-31-11l-4-1c-32 0-63 24-66 59l0 5 0 520c0 39 32 65 66 64z" />
<glyph glyph-name="arrow-first" horiz-adv-x="1000" unicode="&#x13abf;" d="M164 750c35 0 64-29 64-64l0-639c0-33-26-61-59-64l-5 0c-35 0-64 29-64 64l0 639c0 35 29 64 64 64z" />
<glyph glyph-name="arrow-first" horiz-adv-x="1000" unicode="&#x13abe;" d="M801 691l5 0c30-2 58-25 61-59l0-5 0-520c0-35-26-61-57-64l-5 0-4-1c-10 1-20 4-30 9l-5 3-368 260c-35 25-37 75-5 102l5 3 368 260c10 6 20 10 29 11l6 1z" />
<glyph glyph-name="arrow-down" horiz-adv-x="1000" unicode="&#xea5b;" d="M772 358l-53 54c-9 8-24 8-32 0l-137-137v352c0 13-10 23-23 23h-90c-13 0-23-10-23-23v-343l-127 128c-9 8-23 8-32 0l-54-54c-8-9-8-23 0-32l270-269c9-9 23-9 32 0l269 269c9 9 9 23 0 32z" />
<glyph glyph-name="arrow-left" horiz-adv-x="1000" unicode="&#xea5c;" d="M777 422h-343l128 128c8 9 8 23 0 32l-54 53c-9 9-23 9-32 0l-269-269c-9-9-9-23 0-32l269-269c9-9 23-9 32 0l54 53c8 9 8 23 0 32l-137 137h352c13 0 23 10 23 23v90c0 12-10 22-23 22z" />
<glyph glyph-name="arrow-right" horiz-adv-x="1000" unicode="&#xea5d;" d="M223 422h343l-128 128c-8 9-8 23 0 32l54 53c9 9 23 9 32 0l269-269c9-9 9-23 0-32l-269-269c-9-9-23-9-32 0l-54 53c-8 9-8 23 0 32l137 137h-352c-13 0-23 10-23 23v90c0 12 10 22 23 22z" />
<glyph glyph-name="arrow-up" horiz-adv-x="1000" unicode="&#xea5e;" d="M427 73v343l-127-128c-9-8-23-8-32 0l-54 54c-8 9-8 23 0 32l270 269c9 9 23 9 32 0l269-269c9-9 9-23 0-32l-53-54c-9-8-23-8-32 0l-137 137v-352c0-13-10-23-23-23h-90c-13 0-23 10-23 23z" />
<glyph glyph-name="ambulance-cross" horiz-adv-x="1000" unicode="&#xec08;" d="M358 581c-2 0-4 3-5 5 0 3 0 7 0 11h20c1 5 2 9 2 13 2 15 11 26 25 31 3 1 5 2 7 3h12c20-6 33-18 34-39l1-8h22v-15c-1 0-2-1-2-1-39 0-77 0-116 0z m311-418c-13-41 9-86 50-101 6-3 13-4 20-6h18c4 1 8 2 11 3 34 9 60 41 61 76 1 36-24 70-58 80-43 12-88-11-102-52z m38-27c0 22 18 40 40 40 22 0 40-18 40-39 0-21-18-39-39-39-22 0-41 18-41 38z m-518 1c0-37 24-69 61-79 2 0 4-1 6-2h31c15 6 30 11 42 23 26 25 32 65 13 98-18 32-55 47-92 38-35-9-61-42-61-78z m42-1c0 22 18 39 40 39 22 0 40-17 40-39 0-21-18-38-41-38-21 0-39 18-39 38z m706 222c-1 57-1 113-1 168 0 19-15 33-34 33-37 0-74 0-111 0l-546-1c-21 0-35-9-44-27-6-11-11-22-15-33-17-40-34-80-51-119-1-5-5-10-8-11-23-8-34-24-39-45-6-29-12-58-17-88-3-18-6-36-9-54v-20c6-12 15-22 30-23 21-1 41-1 61-2 7 0 10 3 11 11 4 52 51 94 103 95 57 2 104-38 111-95 2-11 2-11 14-11 79 0 158 1 237 1 8 0 11 3 11 11 5 49 49 90 97 94 62 5 105-38 115-82 2-7 3-15 5-25 19 1 37 2 56 3 9 1 15 6 19 14 2 2 4 5 5 7v190c0 3 0 6 0 9z m-587 25c0-8-3-10-10-10-47 1-94 1-141 1-7 0-15 0-24 0 2 4 2 6 2 7l56 137c2 5 6 7 11 7 32 0 64-1 96 0 7 0 10-2 9-10 0-44 0-88 1-132z m370-18h-77v-86c-10-2-20-3-30-3s-20 1-29 3v86h-78c-2 9-3 19-3 29 0 9 1 19 3 29h78v85c9 2 19 3 29 3 10 0 20-1 30-3v-85h77c2-10 3-20 3-29 0-10-1-20-3-29z" />
<glyph glyph-name="capsule" horiz-adv-x="1000" unicode="&#xec12;" d="M955 707c-23 30-51 56-79 83-83 79-218 82-303-4-169-171-340-341-511-511-71-72-83-184-26-268 26-40 61-71 95-102 40-37 89-55 136-55 68 0 117 23 159 64 170 171 340 340 510 510 7 8 15 16 21 24 58 77 58 184-2 260z m-268-504c-1-1-1-1-2-2-1 0-5 2-9 6l-321 321c-4 4-5 9-2 11 2 1 4 3 5 4 77 77 155 153 230 231 68 69 174 75 251 21 44-33 84-71 113-118 47-75 37-170-25-233-79-81-160-161-240-241z" />
<glyph glyph-name="ui-block" horiz-adv-x="1000" unicode="&#xec41;" d="M854 704c-196 195-512 195-708 0-195-196-195-512 0-708 196-195 512-195 708 0 195 196 195 512 0 708z m-591-117c111 111 280 128 408 51l-459-459c-76 128-60 297 51 408z m474-474c-111-111-280-128-408-51l459 459c77-128 60-297-51-408z" />
<glyph glyph-name="home" horiz-adv-x="1000" unicode="&#x13b41;" d="M0 369c0-23 19-39 42-39 14 0 25 6 35 16l410 374c4 4 9 5 13 5 5 0 9-1 13-5l410-374c10-10 21-16 35-16 24 0 42 16 42 39 0 13-4 23-15 33l-149 136 0 249c0 18-12 30-31 30l-66 0c-19 0-31-12-31-30l0-133-149 137c-18 16-38 24-59 24-21 0-41-8-58-24l-427-389c-10-10-15-20-15-33z" />
<glyph glyph-name="home" horiz-adv-x="1000" unicode="&#x13b40;" d="M132 22l0 298 355 323c4 4 8 6 13 6 4 0 8-2 12-6l356-322 0-299c0-59-37-95-98-95l-163 0 0 297c0 19-13 32-32 32l-149 0c-19 0-32-13-32-32l0-297-164 0c-61 0-98 36-98 95z" />
<glyph glyph-name="thin-down" horiz-adv-x="1000" unicode="&#xeac8;" d="M800 497l-300-309-300 309 17 16 283-292 284 291 16-15z" />
<glyph glyph-name="thin-up" horiz-adv-x="1000" unicode="&#xeacb;" d="M784 188l-284 291-284-291-16 16 300 308 300-308-16-16z" />
<glyph glyph-name="navigation-menu" horiz-adv-x="1000" unicode="&#xefa2;" d="M63 628v-24c0-38 30-69 68-69h738c38 0 68 31 68 69v24c0 38-30 69-68 69h-738c-38 0-68-31-68-69z m68-359h738c38 0 68 31 68 69v24c0 38-30 69-68 69h-738c-38 0-68-31-68-69v-24c0-38 30-69 68-69z m0-266h738c38 0 68 30 68 68v25c0 38-30 68-68 68h-738c-38 0-68-30-68-68v-25c0-38 30-68 68-68z" />
<glyph glyph-name="heart-alt" horiz-adv-x="1000" unicode="&#xef44;" d="M495-109c-13 17-24 35-37 51-41 51-90 94-138 137-57 52-114 102-169 156-56 56-103 120-129 197-22 62-30 125-13 190 25 99 110 175 211 190 116 18 224-40 276-145 0-2 1-3 2-4 1-3 2-3 4-2 0 1 1 2 1 3 39 79 100 129 187 146 81 17 154-2 217-55 71-61 100-139 92-231-8-87-44-161-97-229-50-64-109-117-169-170-54-49-108-98-160-149-27-25-50-56-68-88-1-1-1-2-2-3-1-2-5 1-8 6z" />
<glyph glyph-name="heart" horiz-adv-x="1000" unicode="&#xef45;" d="M500 595c16 28 36 52 60 72 90 73 230 66 311-17 64-66 80-145 55-232-19-68-56-126-100-180-73-87-160-155-255-215-21-13-43-26-64-38-3-2-9-3-12-1-109 62-211 134-296 227-52 55-94 117-119 189-21 60-25 120 1 179 34 76 94 123 177 135 104 14 185-25 240-116 0-1 1-1 2-3z" />
<glyph glyph-name="heart-beat" horiz-adv-x="1000" unicode="&#xec1f;" d="M740 348c-40-33-80-66-125-103-33 48-63 91-98 142-40-71-75-133-114-202-41 63-76 118-112 174-35-15-66-34-103-41-21-4-44-4-68-3 22-38 49-72 79-105 85-92 187-164 296-226 3-2 9-1 12 1 21 12 43 24 64 38 95 60 182 128 255 215 20 25 39 50 55 78-69-5-104 4-141 32z m131 302c-81 83-221 90-311 17-24-20-44-44-60-72-1 2-2 2-2 3-55 91-136 130-240 116-83-12-143-59-177-135-26-59-22-119-1-179 4-13 9-25 15-37 94-10 150 31 208 75 34-45 65-85 100-131 38 72 74 138 114 213 40-66 74-124 113-189 40 32 76 60 119 95 28-55 86-67 157-63 8 17 15 35 20 54 25 88 9 167-55 233z" />
<glyph glyph-name="heart-beat-alt" horiz-adv-x="1000" unicode="&#xec1e;" d="M560 17l-106 320h-104l-67 251-61-251h-70c133-198 384-414 384-414s250 216 382 414h-265l-93-320z m227 760c-86 9-228-44-252-181-25 137-167 190-252 181-105-12-243-58-208-272 7-43 29-92 61-142h66l80 328 88-328h102l87-259 74 259h293v-13c35 55 61 108 68 155 36 214-103 260-207 272z m139-440v13c-3-4-6-8-8-13h8z m-926 26v-26h152c-5 9-11 17-16 26h-136z" />
<glyph glyph-name="heartbeat" horiz-adv-x="1000" unicode="&#xec20;" d="M918 758h-836c-45 0-82-37-82-82v-653c0-45 37-81 82-81h836c45 0 82 36 82 81v653c0 45-37 82-82 82z m17-735c0-9-8-16-17-16h-836c-9 0-17 7-17 16v653c0 9 8 17 17 17h836c9 0 17-8 17-17v-653z m-113 609h-643c-28 0-49-22-49-49v-237l110 0 46 44c5 4 12 7 18 6 7 0 13-3 18-8l20-23 23 121c2 10 11 18 22 20 10 1 21-5 25-15l29-71 28 59c4 9 14 15 24 14 10-1 19-8 22-18l44-150 16 88c2 10 10 18 20 20 10 2 20-4 25-13l43-78 27 55c4 8 13 13 22 13h159v173c0 28-22 49-49 49z m-136-354c-4-8-12-14-21-14-9 0-18 5-22 13l-32 59-22-122c-2-12-12-20-23-20 0 0-1 0-1 0-11 0-21 7-24 17l-55 189-24-51c-5-9-14-14-23-14-10 0-18 6-22 15l-19 46-18-90c-1-9-8-17-17-19-9-3-19 0-25 8l-36 41-35-32c-5-5-11-7-17-7h-120v-181c0-27 22-49 49-49h643c27 0 49 22 49 49v245h-144l-41-83z" />
<glyph glyph-name="archive" horiz-adv-x="1000" unicode="&#x13abd;" d="M876 817c29 0 53-23 56-52l0-5 0-225c0-30-22-54-51-56l-5 0-786 0c-15 0-30 6-40 17-9 9-15 21-16 34l-1 5 0 225c0 30 23 54 52 57l5 0 786 0z" />
<glyph glyph-name="archive" horiz-adv-x="1000" unicode="&#x13abc;" d="M876 449l0-508c0-15-6-29-16-39-10-10-22-15-35-17l-5 0-674 0c-30 0-54 23-56 52l0 4 0 508 786 0z m-333-113l-120 0c-33 0-60-27-60-60 0-32 24-57 55-60l5 0 120 0c33 0 60 27 60 60 0 32-25 57-55 60l-5 0z" />
<glyph glyph-name="briefcase-alt" horiz-adv-x="1000" unicode="&#x13ad1;" d="M875 225l0-167c0-44-35-80-78-83l-5 0-583 0c-44 0-81 35-83 78l-1 5 0 167 292 0c0-21 16-39 37-41l4-1 84 0c21 0 39 17 41 38l0 4 292 0 0-167 0 167z" />
<glyph glyph-name="briefcase-alt" horiz-adv-x="1000" unicode="&#x13ad0;" d="M500 725c90 0 163-71 167-159l0-8 166 0c44 0 81-34 84-77l0-6 0-125c0-44-35-80-78-83l-6 0-250 0 0 41c0 22-16 40-37 42l-4 0-84 0c-21 0-39-16-41-37l0-5 0-41-250 0c-45 0-81 34-83 78l-1 5 0 125c0 44 35 80 78 83l6 0 166 0c0 92 75 167 167 167z m0-83c-44 0-80-35-83-78l0-6 166 0c0 44-34 81-77 84l-6 0z" />
<glyph glyph-name="bookmark" horiz-adv-x="1000" unicode="&#x13acf;" d="M208 642l417 0c44 0 80-35 83-78l0-6 0-666-291 125-292-125 0 666c0 44 35 81 78 84l5 0 417 0-417 0z" />
<glyph glyph-name="bookmark" horiz-adv-x="1000" unicode="&#x13ace;" d="M375 808l417 0c44 0 80-34 83-77l0-6 0-667-83 42 0 542c0 44-35 80-78 83l-6 0-416 0 0 6c3 41 36 74 77 77l6 0 417 0-417 0z" />
<glyph glyph-name="book" horiz-adv-x="1000" unicode="&#x13acd;" d="M817 783l0-456-261-196 0 457z" />
<glyph glyph-name="book" horiz-adv-x="1000" unicode="&#x13acc;" d="M262 653l14 0c69-3 139-22 202-58l12-7 0-578 14 7c62 30 130 46 200 48l15 0 16 0c45-1 89-9 131-22l16-5 0 582 13-5c14-6 27-13 39-20l13-7 0-599c0-18-15-33-32-33-4 0-9 2-14 4-53 24-110 38-168 40l-14 0-14 0c-75-3-149-24-215-65-65 41-140 62-214 65l-14 0-15 0c-57-2-114-16-168-40-4-2-9-4-14-4-15 0-29 13-31 29l-1 4 0 599c66 41 141 62 215 65l14 0z" />
<glyph glyph-name="accessibility" horiz-adv-x="1000" unicode="&#x13ab5;" d="M196 358l75-75c-21-30-33-66-33-106 0-101 81-185 182-188l7-1 10 1c32 1 62 11 88 27l8 5 75-75c-50-39-113-62-181-62-162 0-294 131-294 293 0 65 21 124 56 172l7 9z" />
<glyph glyph-name="accessibility" horiz-adv-x="1000" unicode="&#x13ab4;" d="M433 804l5-1c7 0 14-2 20-5l5-2c0 0 263-153 263-153 14-9 22-22 26-37 5-19 2-41-11-58l-3-5-111-125 201 11 5 0 5 0c13-2 25-8 34-17 10-11 16-25 16-39l0-6-24-297c-3-28-25-50-52-52l-5 0-5 0 0 0c-30 2-53 27-53 57l0 5 19 231-77-4c19-39 30-83 30-130 0-74-28-141-73-193l-7-8-74 74c30 34 49 79 49 127 0 104-85 189-189 189-46 0-88-16-120-43l-7-6-74 74c39 37 88 63 142 74l11 2 143 162-81 47-97-87c-10-9-22-14-34-15l-5 0c-16 0-31 7-42 19-20 23-20 56 0 78l4 3 129 115c9 8 20 13 32 14l5 1z m333 46c53 0 96-43 96-96 0-51-40-93-91-96l-5 0c-54 0-97 43-97 96 0 53 43 96 97 96z" />
<glyph glyph-name="briefcase" horiz-adv-x="1000" unicode="&#x13ad3;" d="M916 227l0-163c0-43-34-79-76-82l-5 0-653 0c-43 0-79 34-82 76l0 6 0 163 0-5c3-41 36-74 76-76l6-1 653 0c43 0 78 34 81 77l0 5z" />
<glyph glyph-name="briefcase" horiz-adv-x="1000" unicode="&#x13ad2;" d="M427 717l163 0c45 0 79-32 81-76l0-6 0-41 164 0c43 0 78-34 81-76l0-5 0-245c0-43-34-79-76-82l-5 0-653 0c-43 0-79 34-82 76l0 6 0 245c0 43 34 78 76 81l6 0 163 0 0 41c0 45 32 79 76 82l6 0z m81-368c-24 0-41-16-41-40 0-25 17-41 41-41 25 0 41 16 41 41 0 24-16 40-41 40z m82 286l-163 0 0-41 163 0 0 41z" />
<glyph glyph-name="calendar" horiz-adv-x="1000" unicode="&#x13adb;" d="M811 783c99 0 150-51 150-148l0 0 0-555c0-97-51-148-150-148l0 0-628 0c-98 0-150 51-150 148l0 0 0 555c0 98 52 148 150 148l0 0z m0-222l-628 0c-38 0-59-20-59-60l0 0 0-419c0-40 21-60 59-60l0 0 628 0c38 0 59 20 59 60l0 0 0 419c0 40-21 60-59 60l0 0z" />
<glyph glyph-name="calendar" horiz-adv-x="1000" unicode="&#x13ada;" d="M287 180c15 0 21-4 22-18l0-3 0-27c0-15-5-20-18-21l-4 0-26 0c-15 0-21 4-22 17l0 4 0 27c0 15 5 20 18 21l4 0 26 0z m122 0l27 0c15 0 21-4 22-18l0-3 0-27c0-15-5-20-18-21l-4 0-27 0c-15 0-21 4-21 17l-1 4 0 27c0 15 5 20 19 21l3 0 27 0z m176 0c16 0 22-5 22-21l0-27c0-16-6-21-22-21l-27 0c-16 0-21 5-21 21l0 27c0 16 5 21 21 21l27 0z m-298 146c15 0 21-4 22-17l0-4 0-27c0-15-5-20-18-21l-4 0-26 0c-15 0-21 4-22 18l0 3 0 27c0 15 5 20 18 21l4 0 26 0z m149 0c15 0 21-4 22-17l0-4 0-27c0-15-5-20-18-21l-4 0-27 0c-15 0-21 4-21 18l-1 3 0 27c0 15 5 20 19 21l3 0 27 0z m149 0c15 0 21-4 22-17l0-4 0-27c0-15-5-20-18-21l-4 0-27 0c-15 0-21 4-21 18l0 3 0 27c0 15 4 20 18 21l3 0 27 0z m149 0c15 0 21-4 22-17l0-4 0-27c0-15-5-20-19-21l-3 0-27 0c-15 0-21 4-21 18l0 3 0 27c0 15 4 20 17 21l4 0 27 0z m-298 147c15 0 21-4 22-18l0-3 0-27c0-15-5-20-18-21l-4 0-27 0c-15 0-21 4-21 17l-1 4 0 27c0 15 5 20 19 21l3 0 27 0z m149 0c15 0 21-4 22-18l0-3 0-27c0-15-5-20-18-21l-4 0-27 0c-15 0-21 4-21 17l0 4 0 27c0 15 4 20 18 21l3 0 27 0z m149 0c15 0 21-4 22-18l0-3 0-27c0-15-5-20-19-21l-3 0-27 0c-15 0-21 4-21 17l0 4 0 27c0 15 4 20 17 21l4 0 27 0z" />
<glyph glyph-name="cart" horiz-adv-x="1000" unicode="&#x13adf;" d="M317 50c46 0 83-37 83-83 0-46-37-84-83-84-46 0-84 38-84 84 0 46 38 83 84 83z m500 0c46 0 83-37 83-83 0-46-37-84-83-84-46 0-84 38-84 84 0 46 38 83 84 83z" />
<glyph glyph-name="cart" horiz-adv-x="1000" unicode="&#x13ade;" d="M993 634c-7 13-21 22-35 22l-702 32-25 95c-5 20-22 34-43 34l-144 0c-24 0-44-20-44-45 0-24 20-44 44-44l109 0 123-476-30-124c-4-14 0-28 7-38 9-11 21-17 35-17l544 0c25 0 45 20 45 45 0 24-20 44-45 44l-486 0 12 51 444 21c17 2 31 12 38 26l156 333c6 13 5 28-3 41z" />
<glyph glyph-name="category" horiz-adv-x="1000" unicode="&#x13ae1;" d="M465 708l-155-253c-17-27 3-63 35-63l310 0c32 0 52 36 35 63l-155 253c-16 27-54 27-70 0z m77-587c0 103 84 187 187 187 104 0 188-84 188-187 0-104-84-188-188-188-103 0-187 84-187 188z" />
<glyph glyph-name="category" horiz-adv-x="1000" unicode="&#x13ae0;" d="M167-46l250 0c23 0 41 19 41 42l0 250c0 23-18 42-41 42l-250 0c-23 0-42-19-42-42l0-250c0-23 19-42 42-42z" />
<glyph glyph-name="chart" horiz-adv-x="1000" unicode="&#x13ae3;" d="M275 550c32 0 58-26 58-58l0-292c0-32-26-58-58-58l-8 0c-32 0-59 26-59 58l0 292c0 32 27 58 59 58l8 0z m225 175c32 0 58-26 58-58l0-467c0-32-26-58-58-58-32 0-58 26-58 58l0 467c0 32 26 58 58 58z m233-333c32 0 59-27 59-59l0-133c0-32-27-58-59-58-32 0-58 26-58 58l0 133c0 32 26 59 58 59z" />
<glyph glyph-name="chart" horiz-adv-x="1000" unicode="&#x13ae2;" d="M792 17c0-32-27-59-59-59l-466 0c-32 0-59 27-59 59 0 32 27 58 59 58l466 0c32 0 59-26 59-58z" />
<glyph glyph-name="click" horiz-adv-x="1000" unicode="&#x13ae7;" d="M262 400l-137-94c-25-19-53 19-32 37l140 99c26 17 55-22 29-42z m-199 189l163-29c31-4 24-49-3-47l-170 27c-32 7-22 55 10 49z m587 85l-134-98c-29-16-55 23-29 42l137 95c26 19 55-23 26-39z m-442 116l100-139c16-26-23-56-43-30l-94 137c-19 25 20 54 37 32z m246 30l-29-163c-7-32-52-22-49 7l29 166c7 33 56 23 49-10z" />
<glyph glyph-name="click" horiz-adv-x="1000" unicode="&#x13ae6;" d="M409 511l527-310c26-16 16-55-13-58l-264-43-130-234c-13-23-52-20-55 9l-114 603c-4 26 26 46 49 33z" />
<glyph glyph-name="credit" horiz-adv-x="1000" unicode="&#x13afb;" d="M1000 449l0-322c0-94-50-146-142-149l-9-1-698 0c-95 0-147 49-151 141l0 9 0 322 1000 0z m-695-95l-108 0c-25 0-41-15-44-37l0-5 0-82c0-23 15-40 38-42l6 0 108 0c24 0 41 15 43 37l0 5 0 82c0 25-17 42-43 42z m-154 396l698 0c95 0 147-49 151-140l0-10 0-45-1000 0 0 45c0 95 49 147 141 150l10 0 698 0-698 0z" />
<glyph glyph-name="credit" horiz-adv-x="1000" unicode="&#x13afa;" d="M1000 449l0-322c0-94-50-146-142-149l-9-1-698 0c-95 0-147 49-151 141l0 9 0 322 1000 0z m-695-95l-108 0c-25 0-41-15-44-37l0-5 0-82c0-23 15-40 38-42l6 0 108 0c24 0 41 15 43 37l0 5 0 82c0 25-17 42-43 42z m-154 396l698 0c95 0 147-49 151-140l0-10 0-45-1000 0 0 45c0 95 49 147 141 150l10 0 698 0-698 0z" />
<glyph glyph-name="cube" horiz-adv-x="1000" unicode="&#x13afd;" d="M463-138l0 469-427 238c-2-8-3-16-3-26l0-368c0-63 22-90 68-116l345-191c6-3 11-6 17-6z" />
<glyph glyph-name="cube" horiz-adv-x="1000" unicode="&#x13afc;" d="M960 569c1-8 2-16 2-26l0-368c0-63-22-90-67-116l-346-191c-5-3-11-6-16-6l0 469 427 238z m-462 281c26 0 52-6 78-19l10-5 319-177c7-4 13-8 18-13l6-5-431-238-431 238c6 7 14 12 22 17l7 4 314 174c29 16 58 24 88 24z" />
<glyph glyph-name="comment" horiz-adv-x="1000" unicode="&#x13aeb;" d="M833 600l-41 0 0-333c0-23-19-42-42-42l-500 0 0-42c0-45 38-83 83-83l417 0 167-167 0 584c0 46-38 83-84 83z" />
<glyph glyph-name="comment" horiz-adv-x="1000" unicode="&#x13aea;" d="M708 392l0 291c0 46-37 84-83 84l-458 0c-46 0-84-38-84-84l0-541 167 166 375 0c46 0 83 38 83 84z" />
<glyph glyph-name="compass" horiz-adv-x="1000" unicode="&#x13aed;" d="M745 595l-136-354-354-136 136 354 354 136z m-191-191c-30 30-78 30-108 0-30-30-30-78 0-108 30-30 78-30 108 0 30 30 30 78 0 108z" />
<glyph glyph-name="compass" horiz-adv-x="1000" unicode="&#x13aec;" d="M500 773c233 0 423-190 423-423 0-233-190-423-423-423-233 0-423 190-423 423 0 233 190 423 423 423m0 77c-276 0-500-224-500-500 0-276 224-500 500-500 276 0 500 224 500 500 0 276-224 500-500 500l0 0z" />
<glyph glyph-name="dashboard" horiz-adv-x="1000" unicode="&#x13b01;" d="M544 214c-15 298-29 447-44 447-14 0-29-149-44-447-20-14-34-37-34-64 0-43 35-78 78-78 43 0 78 35 78 78 0 27-14 50-34 64z" />
<glyph glyph-name="dashboard" horiz-adv-x="1000" unicode="&#x13b00;" d="M500 850c-276 0-500-224-500-500 0-276 224-500 500-500 276 0 500 224 500 500 0 276-224 500-500 500z m69-525l5-78c29-22 48-57 48-97 0-67-54-122-122-122-67 0-122 55-122 122 0 40 19 75 48 97l6 77c-183-17-302-99-346-135-20 50-30 104-30 161 0 246 199 444 444 444 246 0 444-198 444-444 0-54-9-106-27-153-41 32-162 111-348 128z" />
<glyph glyph-name="database" horiz-adv-x="1000" unicode="&#x13b03;" d="M0-50l0 200c0-54 217-99 487-100l13 0c272 0 493 43 500 97l0 3 0-200c0-53-203-96-460-100l-40 0-27 0c-259 3-466 45-473 97l0 3 0 200 0-200z m1000 500l0-200c0-55-224-100-500-100l-27 0c-259 3-466 45-473 97l0 3 0 200c0-55 224-100 500-100l27 0c259 3 466 45 473 97l0 3z" />
<glyph glyph-name="database" horiz-adv-x="1000" unicode="&#x13b02;" d="M500 850c-276 0-500-45-500-100l0-200c0-55 224-100 500-100 276 0 500 45 500 100l0 200c0 55-224 100-500 100z" />
<glyph glyph-name="descending" horiz-adv-x="1000" unicode="&#x13b05;" d="M227 517l106-105c13-14 34-14 47 0 14 13 14 34 0 47l-161 162c-13 13-35 13-48 0l-161-162c-13-13-13-34 0-47 13-14 35-14 48 0l105 105 0-435c0-18 14-32 32-32 18 0 32 14 32 32l0 435z" />
<glyph glyph-name="descending" horiz-adv-x="1000" unicode="&#x13b04;" d="M960 534c22 0 40 18 40 40 0 23-18 41-40 41l-371 0c-23 0-41-18-41-41 0-22 18-40 41-40l371 0z m-65-161c22 0 41 18 41 40 0 22-19 40-41 40l-306 0c-23 0-41-18-41-40 0-22 18-40 41-40l306 0z m-64-162c22 0 40 18 40 41 0 22-18 40-40 40l-242 0c-23 0-41-18-41-40 0-23 18-41 41-41l242 0z m-65-161c22 0 41 18 41 40 0 23-19 41-41 41l-177 0c-23 0-41-18-41-41 0-22 18-40 41-40l177 0z" />
<glyph glyph-name="download" horiz-adv-x="1000" unicode="&#x13b09;" d="M229 165l531 0 0 170c0 10 9 19 19 19l125 0c10 0 18-9 18-19l0-313c0-10-8-19-18-19-273 0-546 0-819 0-10 0-18 9-18 19l0 313c0 10 8 19 18 19l125 0c10 0 19-9 19-19l0-170z" />
<glyph glyph-name="download" horiz-adv-x="1000" unicode="&#x13b08;" d="M437 717l115 0c23 0 42-19 42-42l0-210 99 0c37 0 56-45 29-72l-198-195c-8-8-19-13-30-13-11 0-21 5-29 13l-197 193c-29 27-11 74 28 74l99 0 0 210c0 23 19 42 42 42z" />
<glyph glyph-name="duplicate-alt" horiz-adv-x="1000" unicode="&#x13d0e;" d="M170 812l493 0c32 0 58-25 61-56l0-5 0-63-442 0c-27 0-48-20-50-46l-1-4 0-625-61 0c-32 0-58 24-61 56l0 5 0 677c0 32 24 58 56 61l5 0 493 0-493 0z" />
<glyph glyph-name="duplicate-alt" horiz-adv-x="1000" unicode="&#x13d0d;" d="M355 627l492 0c32 0 59-25 62-56l0-5 0-616c0-32-25-58-56-61l-5 0-495 0-5 0c-29 4-52 27-54 56l0 5 0 616c0 32 24 58 56 61l5 0 492 0-492 0z" />
<glyph glyph-name="envelope" horiz-adv-x="1000" unicode="&#x13b0f;" d="M0 662l454-317c27-20 65-20 92 0l454 317c-2 32-27 55-57 55l-883 0c-30 0-57-23-60-55z" />
<glyph glyph-name="envelope" horiz-adv-x="1000" unicode="&#x13b0e;" d="M635 347l333-310c-8-3-18-5-25-5l0 0-883 0c-10 0-20 2-28 5l0 0 335 310 60-42c45-32 102-32 149 0l0 0 59 42z m365 256l0-526-325 297 325 229z m-1000 0l325-229-322-297c-2 3-3 7-3 10l0 516z" />
<glyph glyph-name="eye-open" horiz-adv-x="1000" unicode="&#x13b1b;" d="M681 364c0-50-18-92-53-128-36-35-78-53-128-53-50 0-92 18-128 53-35 36-53 78-53 128 0 30 7 58 21 85 0-21 8-38 22-53 14-14 32-22 53-22 21 0 38 8 53 22 14 15 22 32 22 53 0 21-8 38-22 53-15 14-32 22-53 22 27 14 55 20 85 20 50 0 92-17 128-52 35-36 53-78 53-128z" />
<glyph glyph-name="eye-open" horiz-adv-x="1000" unicode="&#x13b1a;" d="M988 406c8-13 12-27 12-42 0-15-4-29-12-42-50-84-118-151-203-201-87-51-182-77-285-77-103 0-198 26-285 77-85 50-153 117-203 201-8 13-12 27-12 42 0 15 4 29 12 42 50 84 118 151 203 201 87 51 182 76 285 76 103 0 198-25 285-76 85-50 153-117 203-201z m-488-278c43 0 82 11 118 32 36 21 65 50 86 86 21 36 32 75 32 118 0 43-11 82-32 118-21 36-50 65-86 86-36 21-75 32-118 32-43 0-82-11-118-32-36-21-65-50-86-86-21-36-32-75-32-118 0-43 11-82 32-118 21-36 50-65 86-86 36-21 75-32 118-32z" />
<glyph glyph-name="field-group" horiz-adv-x="1000" unicode="&#x13b1f;" d="M483 341c10 0 19-8 20-17l1-3 0-91 84-84c8-7 8-20 0-28-7-7-18-7-26-2l-2 2-77 75-76-75c-8-7-20-7-28 0-7 7-8 18-3 26l3 2 84 84 0 91c0 11 9 20 20 20z" />
<glyph glyph-name="field-group" horiz-adv-x="1000" unicode="&#x13b1e;" d="M314 92c51-38 86-97 89-164l0-10 0-14c0-21-16-37-36-40l-4 0-323 0c-21 0-38 16-40 36l0 4 0 14c0 72 35 134 89 174 28-31 68-51 112-51 45 0 85 20 113 51z m564 0c51-38 86-97 89-164l0-10 0-14c0-21-16-37-36-40l-5 0-322 0c-21 0-38 16-40 36l0 4 0 14c0 72 35 134 89 174 28-31 67-51 112-51 45 0 85 20 113 51z m-676 205c60 0 109-48 109-108 0-60-49-108-109-108-61 0-110 48-110 108 0 60 49 108 110 108z m563 0c61 0 110-48 110-108 0-60-49-108-110-108-60 0-109 48-109 108 0 60 49 108 109 108z m-169 314c51-37 86-96 89-164l0-9 0-14c0-21-16-38-36-40l-5 0-322 0c-21 0-38 15-40 35l0 5 0 14c0 71 35 134 89 173 28-31 68-50 112-50 45 0 85 19 113 50z m-113 206c61 0 110-49 110-108 0-60-49-109-110-109-60 0-109 49-109 109 0 59 49 108 109 108z" />
<glyph glyph-name="folder-open" horiz-adv-x="1000" unicode="&#x13b33;" d="M813 683l-625 0c-37 0-72-19-90-51-4-6-4-14 0-21 3-6 10-10 18-10l167 0c44 0 84-28 98-70l13-39c3-9 11-14 20-14l482 0c11 0 21 9 21 20l0 82c0 57-47 103-104 103z" />
<glyph glyph-name="folder-open" horiz-adv-x="1000" unicode="&#x13b32;" d="M938 436l-554 0c-9 0-17 6-19 14l-23 68c-9 25-33 42-59 42l-220 0c-35 0-63-28-63-62 0-57 8-113 25-167l83-274c13-44 54-74 100-74l588 0c44 0 83 27 98 67l90 238c11 28 16 57 16 87 0 34-28 61-62 61z" />
<glyph glyph-name="gift" horiz-adv-x="1000" unicode="&#x13b39;" d="M429 350l0-500-215 0c-76 0-139 60-142 136l-1 7 0 357 358 0z m500 0l0-357c0-77-61-139-136-143l-7 0-215 0 0 500 358 0z" />
<glyph glyph-name="gift" horiz-adv-x="1000" unicode="&#x13b38;" d="M929 636l-127 0c34 38 55 87 55 143l0 71-214 0c-79 0-143-64-143-143 0 79-64 143-143 143l-214 0 0-71c0-56 21-105 56-143l-128 0c-39 0-71-32-71-72l0-143 1000 0 0 143c0 40-32 72-71 72z m-500 0l-72 0c-79 0-143 64-143 143l143 0c40 0 72-32 72-72l0-71z m214 0l-72 0 0 71c0 40 33 72 72 72l143 0c0-79-64-143-143-143z" />
<glyph glyph-name="grayscale" horiz-adv-x="1000" unicode="&#x13b3b;" d="M877 285c0-211-171-382-381-382l0 900c0 0 224-191 294-276 55-66 87-150 87-242z" />
<glyph glyph-name="grayscale" horiz-adv-x="1000" unicode="&#x13b3a;" d="M831 285c0-17-2-35-4-52 1 4 1 8 2 13-5-34-14-66-27-97 2 4 3 7 5 11-13-30-30-59-50-85 3 4 5 7 8 10-20-26-43-49-69-69 3 3 6 5 9 7-26-20-54-36-84-49 4 1 7 3 11 5-31-13-63-22-97-27 4 1 9 1 13 2-35-5-69-5-104 0 4-1 9-1 13-2-34 5-66 14-97 27 4-2 7-4 11-5-30 13-58 30-84 49 3-2 6-4 9-7-26 20-49 43-69 69 3-3 5-6 8-10-20 26-37 55-50 85 2-4 3-7 5-11-13 31-22 63-27 97 1-5 2-9 2-13-5 34-5 69 0 103-1-4-1-8-2-12 5 33 14 66 27 97-2-4-3-7-5-11 13 30 30 59 50 85-2-3-5-6-7-9 18 22 38 43 58 64 25 24 50 48 75 71 46 42 92 83 139 124 10 8 19 17 29 25-22 0-44 0-66 0 28-24 56-48 83-72 51-45 103-91 152-140 23-23 46-46 67-72-3 3-5 6-8 9 21-26 37-55 50-85-1 4-3 7-4 11 13-31 22-64 26-97 0 4-1 8-1 12 1-17 3-34 3-51 0-24 21-48 46-47 25 1 47 21 47 47 0 72-19 143-53 207-24 44-58 82-93 117-33 34-67 65-101 97-32 29-65 58-97 86-17 15-34 29-50 44-1 0-1 0-1 0-9 8-21 15-33 14-13-1-23-5-33-14-21-17-41-35-61-53-43-37-85-75-127-114-37-35-75-70-108-110-14-18-28-37-40-57-12-20-21-41-30-62-17-41-25-85-28-129-5-76 11-153 46-220 32-65 81-119 140-160 61-42 132-66 205-72 75-7 150 8 218 39 65 30 121 78 164 135 22 30 38 61 52 95 14 34 22 70 27 107 2 17 3 33 3 50 0 24-22 48-47 47-25-2-46-21-46-47z" />
<glyph glyph-name="learn" horiz-adv-x="1000" unicode="&#x13b4d;" d="M460 703l-351-191c-29-16-29-58 0-74l351-191c25-14 55-14 80 0l335 183 0-247c0-23 19-41 42-41 23 0 41 18 41 41l0 267c0 16-8 30-21 37l-397 216c-25 14-55 14-80 0z" />
<glyph glyph-name="learn" horiz-adv-x="1000" unicode="&#x13b4c;" d="M208 301l0-117c0-31 17-59 44-74l208-113c25-14 55-14 80 0l208 113c27 15 44 43 44 74l0 117-252-138c-25-13-55-13-80 0l-252 138z" />
<glyph glyph-name="list-thin" horiz-adv-x="1000" unicode="&#x13b52;" d="M154 165l65 0c29 0 54-24 54-54 0-27-22-51-49-53l-5 0-65 0c-30 0-54 24-54 53 0 28 22 51 49 54l5 0 65 0-65 0z m0 243l65 0c29 0 54-24 54-54 0-28-22-51-49-53l-5-1-65 0c-30 0-54 25-54 54 0 28 22 51 49 53l5 1z m0 242l65 0c29 0 54-24 54-54 0-27-22-50-49-53l-5 0-65 0c-30 0-54 24-54 53 0 29 22 51 49 54l5 0z" />
<glyph glyph-name="list-thin" horiz-adv-x="1000" unicode="&#x13b51;" d="M879 159c27 0 48-21 48-48 0-26-21-47-48-47l-480 0c-27 0-48 21-48 47 0 27 21 48 48 48l480 0z m-480 243l480 0c27 0 48-22 48-48 0-25-19-45-43-47l-5 0-480 0c-27 0-48 21-48 47 0 25 19 45 43 47l5 1z m0 242l480 0c27 0 48-21 48-48 0-24-19-45-43-47l-5 0-480 0c-27 0-48 21-48 47 0 26 19 45 43 48l5 0z" />
<glyph glyph-name="location-alt" horiz-adv-x="1000" unicode="&#x13b55;" d="M494-107c-282 0-461 91-461 212 0 114 162 194 335 208l0-97c-113-9-224-51-224-106 0-71 146-118 350-118 203 0 350 47 350 118 0 55-111 97-224 106l0 97c173-14 335-94 335-208 0-121-179-212-461-212z" />
<glyph glyph-name="location-alt" horiz-adv-x="1000" unicode="&#x13b54;" d="M495 850c98 0 176-81 176-180 0-80-52-149-125-172l0 0 0-258c0-91-31-165-51-165-20 0-52 74-52 165l0 0 0 259c-72 23-124 91-124 171 0 99 78 180 176 180z m-50-67c-32 0-60-28-60-62 0-33 28-61 60-61 33 0 60 28 60 61 0 34-27 62-60 62z" />
<glyph glyph-name="pictures" horiz-adv-x="1000" unicode="&#x13b81;" d="M189 657l779 0c8 0 15-3 20-8 4-4 7-10 7-16l1-676c0-7-3-15-9-20-4-4-10-7-16-8l-4 0-779 0c-12 0-22 7-26 17l-1 4 0 681c1 14 11 24 24 26l4 0 779 0-779 0z m750-57l-721 0 0-484 92 0 105 227c2 5 8 9 14 9 4 0 9-1 13-5l1-2 76-110c3-4 7-6 12-7 3 0 7 1 10 3l2 1 49 41c5 5 13 5 19 1l3-2 87-87c3-3 8-5 12-5 4 1 7 2 10 4l2 2 22 27c4 3 8 5 13 5 4 0 8-2 11-4l2-2 74-96 92 0 0 484z m-205-136c29 0 53-23 53-52 0-29-24-53-53-53-29 0-52 24-52 53 0 29 23 52 52 52z" />
<glyph glyph-name="pictures" horiz-adv-x="1000" unicode="&#x13b80;" d="M28 817l781 0c7 0 15-3 20-9 4-4 7-10 8-16l0-4 0-105-58 0 0 77-722 0 0-483 78 0 0-188-107 0c-7 0-14 3-20 8-4 4-7 10-8 16l0 4 0 671c0 8 3 15 8 20 5 5 11 8 17 8l3 1 781 0-781 0z" />
<glyph glyph-name="shield" horiz-adv-x="1000" unicode="&#x13baf;" d="M509 759l318-141 0-214c1-203-126-384-318-451-191 67-319 248-318 451l0 214 318 141m0 91c-13 0-25-3-37-8l-318-141c-33-15-54-47-54-83l0-214c0-252 175-488 409-545 235 57 409 293 409 545l0 214c0 36-21 68-54 83l-318 141c-12 5-24 8-37 8z" />
<glyph glyph-name="shield" horiz-adv-x="1000" unicode="&#x13bae;" d="M509 759l318-141 0-259-318 0 0-406c-169 52-294 219-318 406l318 0 0 400z" />
<glyph glyph-name="shuffle" horiz-adv-x="1000" unicode="&#x13bb1;" d="M458 342c18 40 32 72 44 95 9 17 17 32 25 43 8 12 17 24 28 35 12 11 24 19 39 25 14 5 31 8 48 8l143 0 0-107c0-5 2-9 5-12 4-4 8-6 13-6 5 0 10 2 13 5l178 179c4 3 5 7 5 13 0 5-1 9-5 12l-178 178c-4 4-9 6-13 6-5 0-9-2-13-5-3-3-5-8-5-13l0-107-143 0c-25 0-49-3-71-9-22-6-42-14-59-24-18-9-34-22-51-38-16-16-29-31-41-46-11-15-23-34-35-56-13-22-23-42-31-58-7-17-16-38-27-62-17-41-32-73-44-96-9-17-17-31-25-43-8-12-17-23-28-34-11-11-24-20-39-25-14-6-30-9-48-9l-125 0c-5 0-10-1-13-5-3-3-5-7-5-12l0-108c0-5 2-9 5-12 3-4 8-5 13-5l125 0c25 0 49 3 71 9 23 6 42 14 60 23 17 10 34 22 50 38 16 16 30 32 41 47 11 15 23 33 36 55 12 23 22 42 30 59 7 17 17 37 27 62z" />
<glyph glyph-name="shuffle" horiz-adv-x="1000" unicode="&#x13bb0;" d="M490 326l12-22c3-7 6-13 9-18 5-10 13-22 22-36 10-13 19-23 29-31 9-8 21-14 35-20 12-4 24-7 37-7l8-1 143 0 0 107c0 6 2 10 5 13 4 4 8 5 13 5 4 0 7-1 11-3l2-2 178-178c4-4 5-8 5-13 0-4-1-8-3-11l-2-2-178-178c-3-4-8-5-13-5-5 0-9 1-12 5-3 3-5 6-6 10l0 2 0 108-39-1 0 0-53 0c-11 0-24 0-41 0l-16 1c-9 1-17 1-24 2l-12 2c-7 1-15 2-23 4-14 3-26 6-35 10l-12 6c-7 3-13 6-21 10-12 7-23 14-33 22-9 9-20 19-30 30-11 12-22 25-32 39 22 35 48 85 76 152z m-472 365l125 0c93 0 169-42 228-125-22-35-47-85-76-153l-8 16c-5 10-9 18-13 25-5 10-13 22-22 35-10 14-19 24-29 32-9 7-21 14-35 19-11 5-24 7-37 8l-8 0-125 0c-5 0-10 2-13 5-3 3-4 6-5 10l0 3 0 107c0 5 2 10 5 13 3 3 6 4 10 5l3 0 125 0-125 0z" />
<glyph glyph-name="vcard" horiz-adv-x="1000" unicode="&#x13bdc;" d="M867 617l-834 0c-18 0-33-15-33-34l0-600c0-18 15-33 33-33l834 0c18 0 33 15 33 33l0 600c0 19-15 34-33 34z m-600-100c55 0 100-45 100-100 0-56-45-100-100-100-56 0-100 44-100 100 0 55 44 100 100 100z m166-434c0-18-15-33-33-33l-267 0c-18 0-33 15-33 33l0 67c0 74 60 133 133 133l67 0c74 0 133-59 133-133l0-67z m267 134l-200 0c-18 0-33 15-33 33 0 18 15 33 33 33l200 0c18 0 33-15 33-33 0-18-15-33-33-33z m67 100l-267 0c-18 0-33 15-33 33 0 18 15 33 33 33l267 0c18 0 33-15 33-33 0-18-15-33-33-33z" />
<glyph glyph-name="vcard" horiz-adv-x="1000" unicode="&#x13bdb;" d="M967 717l-834 0c-18 0-33-15-33-34l0-33 767 0c37 0 66-30 66-67l0-533 34 0c18 0 33 15 33 33l0 600c0 19-15 34-33 34z" />
<glyph glyph-name="users" horiz-adv-x="1000" unicode="&#x13bda;" d="M569 498l140 0c78 0 137-57 141-133l0-7 0-455-130 0 0 54c2 218 11 395-144 401l-7 0-94 0c49 27 81 74 92 131l2 9 140 0-140 0z m0 352c79 0 140-61 140-141 0-77-57-136-133-140l-7 0-5 0c-18 63-66 113-128 133l-8 3 0 4c0 80 61 141 141 141z" />
<glyph glyph-name="users" horiz-adv-x="1000" unicode="&#x13bd9;" d="M241 311l281 0c77 0 137-57 140-133l1-8 0-304-563 0 0 304c0 78 57 137 133 141l8 0 281 0-281 0z m140 352c80 0 141-61 141-141 0-80-61-141-141-141-79 0-140 61-140 141 0 80 61 141 140 141z" />
<glyph glyph-name="flora-flower" horiz-adv-x="1000" unicode="&#xe80c;" d="M909 232v-5c-3-2-4-6-5-9-49-94-110-179-201-239-120-80-245-89-374-20-78 42-135 105-184 176-20 30-37 61-54 92v5c2 0 5 0 7 1 44 12 87 11 130-3 80-24 141-74 194-135 18-22 34-45 50-72 0 5 0 7 0 9 0 133 0 266 1 399 0 10-5 11-13 11-43-1-83 8-121 28-49 25-81 64-84 119-1 29-1 58 0 88v111l133-124 112 124 107-124 135 124 3-61c0-3 0-5 0-7 1-41 0-81 0-121 0-45-18-82-54-110-43-34-94-46-149-47-11 0-15-3-15-14 1-130 1-260 1-390 0-4-1-8 1-12 1 1 2 1 2 1l5 9c43 69 99 126 171 167 50 28 103 44 162 36 14-1 27-5 40-7z" />
<glyph glyph-name="chart-bar-graph" horiz-adv-x="1000" unicode="&#xe979;" d="M615 1c0-14 3-18 16-17 38 1 75 0 113 0 0 210 0 420 0 631 0 9-2 11-11 11-39-1-79-1-118-1 0-3 0-7 0-10 0-205 0-410 0-614z m-159-9c0-6 3-8 13-8 34 0 67 0 100 0 12 0 16 1 16 9-1 26-1 53-1 79 0 69 0 138 1 206 0 9-4 11-18 11-32-1-64-1-96 0-12 0-16-2-15-10 0-47 0-95 0-143 0-48 0-96 0-144z m-147-8c33 1 67 1 100 0 12-1 16 4 15 18 0 71 0 142 0 213s0 142 0 213c1 13-3 17-13 16-34 0-68 0-102 0-10 0-14-4-13-16 0-143 0-285 0-428-1-12 3-16 13-16z m-160 0c33 0 67 0 100 0 12 0 15 2 15 10 0 40 0 79 0 119 0 39 0 79 0 119 0 7-3 9-13 9-34-1-68-1-102 0-11 0-14-2-14-9 1-80 1-160 0-239 0-7 3-9 14-9z m637 0c34 0 67 0 100 0 12 0 16 2 16 8-1 30-1 61-1 92 0 30 0 61 1 92 0 5-4 7-14 7-34-1-68-1-102 0-10 0-13-2-13-7 0-62 0-123 0-185 0-6 3-7 13-7z m203-21h-938v815c0 6-4 11-10 11h-30c-6 0-11-5-11-11v-856c0-6 5-11 11-11h978c6 0 11 5 11 11v30c0 6-5 11-11 11z" />
<glyph glyph-name="chart-arrows-axis" horiz-adv-x="1000" unicode="&#xe978;" d="M992-2c-38 30-76 59-114 89-3 2-6 5-10 3-5-2-5-6-5-11 0-15-1-31 0-46 0-9-3-11-12-11-63 0-126 0-189 0-171 0-342 0-512 0-11 0-13 3-13 13 0 81 0 163 0 245 0 130 0 260 0 390 0 7 2 9 9 8 16 0 32 0 48 0 5 0 9 0 11 5 3 4 0 7-3 11-30 38-60 77-90 115-6 9-12 9-18 1l-90-116c-3-3-5-6-3-11 2-4 6-5 11-5 14 0 28 0 43 0 14 0 14 0 14-14l0-162 0-508c0-27 13-41 39-41 123 0 247 0 370 0h37c112 0 225 0 338 0 7 0 10-1 10-9-1-15 0-31 0-46 0-5 0-10 5-13 5-3 8 1 12 4 37 29 75 59 112 88 11 9 11 12 0 21z m-165 368c-5-3-9-6-13-9-50-36-100-72-151-109-6-4-11-5-18-3-34 9-69 18-104 27-7 2-12 0-17-7-34-43-68-86-102-130-6-8-9-9-16-1-41 51-82 101-123 152-6 7-9 8-15 1-29-29-59-57-88-86-6-4-8-9-8-16 1-36 1-71 1-106 0-22 0-22 21-22 208 0 415 0 622 0 10 0 12 2 12 12-1 38 0 76 0 114-1 60-1 121-1 183z m-655 63c1-41 0-82 0-123v-39c6 2 8 5 11 8 28 28 56 55 83 84 8 8 12 7 18-1l123-148c6-7 8-6 14 1 29 37 59 74 87 112 7 8 13 10 23 7 38-9 76-17 114-26 7-1 12-1 18 4 52 39 105 78 158 116 5 4 7 8 7 15-1 42-1 84-1 126v41c-5-1-7-4-10-6-51-41-103-83-154-124-6-5-10-5-17-4-39 11-79 20-119 31-7 1-12 0-16-6-5-8-11-15-16-23-25-33-51-66-75-100-5-5-8-7-12 0-2 2-4 5-6 7-40 50-80 100-120 150-4 6-7 8-13 1-30-30-61-60-91-90-4-4-6-8-6-13z" />
<glyph glyph-name="block-down" horiz-adv-x="1000" unicode="&#xea5f;" d="M937-88v876h-875v-876h875z m-117 590l-320-329-320 329 26 25 294-303 294 303 26-25z" />
<glyph glyph-name="block-left" horiz-adv-x="1000" unicode="&#xea60;" d="M62-86h875v876h-875v-876z m615 732l-303-294 303-294-25-26-329 320 329 320 25-26z" />
<glyph glyph-name="block-right" horiz-adv-x="1000" unicode="&#xea61;" d="M938 788h-876v-876h875v876z m-615-732l303 294-303 294 25 26 329-320-329-320-25 26z" />
<glyph glyph-name="block-up" horiz-adv-x="1000" unicode="&#xea62;" d="M62 788v-876h875v876h-875z m732-615l-294 303-294-303-26 25 320 329 320-329-26-25z" />
<glyph glyph-name="circled-down" horiz-adv-x="1000" unicode="&#xea6b;" d="M63 350c0-241 196-438 437-438s438 197 438 438-196 438-438 438-437-196-437-438z m460-40l202 202c9 9 25 9 35 0l59-59c9-10 9-26 0-35l-296-296c-10-10-26-10-35 0l-296 296c-10 9-10 25 0 35l59 59c9 9 25 9 35 0l202-202c9-10 25-10 35 0z" />
<glyph glyph-name="circled-left" horiz-adv-x="1000" unicode="&#xea6c;" d="M500 788c-241 0-437-196-437-438s196-438 437-438 438 197 438 438-196 438-438 438z m-40-461l202-202c9-9 9-25 0-35l-59-59c-10-9-26-9-35 0l-296 296c-10 10-10 26 0 35l296 296c9 10 25 10 35 0l59-58c9-10 9-26 0-36l-202-202c-10-9-10-25 0-35z" />
<glyph glyph-name="caret-down" horiz-adv-x="1000" unicode="&#xea67;" d="M534 213l255 254c19 19 13 35-14 35h-550c-27 0-33-16-14-35l255-254c19-19 49-19 68 0z" />
<glyph glyph-name="caret-left" horiz-adv-x="1000" unicode="&#xea68;" d="M362 384l255 255c19 19 34 13 34-14v-550c0-27-15-33-34-14l-255 255c-19 19-19 49 0 68z" />
<glyph glyph-name="caret-right" horiz-adv-x="1000" unicode="&#xea69;" d="M637 384l-255 255c-18 19-34 13-34-14v-550c0-27 16-33 34-14l255 255c19 19 19 49 0 68z" />
<glyph glyph-name="caret-up" horiz-adv-x="1000" unicode="&#xea6a;" d="M534 487l255-255c19-18 13-34-14-34h-550c-27 0-33 15-14 34l255 255c19 19 49 19 68 0z" />
<glyph glyph-name="circled-right" horiz-adv-x="1000" unicode="&#xea6d;" d="M63 350c0-241 196-438 437-438s438 197 438 438-196 438-438 438-437-196-437-438z m477 12l-202 202c-9 10-9 26 0 36l59 58c10 10 26 10 35 0l296-296c10-9 10-25 0-35l-296-296c-9-9-25-9-35 0l-59 59c-9 10-9 26 0 35l202 202c10 10 10 26 0 35z" />
<glyph glyph-name="circled-up" horiz-adv-x="1000" unicode="&#xea6e;" d="M500-88c242 0 438 197 438 438s-196 438-438 438-437-196-437-438 196-438 437-438z m-12 478l-202-202c-10-9-26-9-35 0l-59 59c-10 10-10 26 0 35l296 296c9 10 25 10 35 0l296-296c9-9 9-25 0-35l-59-59c-10-9-26-9-35 0l-202 202c-10 10-26 10-35 0z" />
<glyph glyph-name="long-arrow-down" horiz-adv-x="1000" unicode="&#xea92;" d="M537 624v-412h110c14 0 18-8 8-18l-137-136c-10-10-26-10-36 0l-136 136c-11 10-7 18 7 18h110v412c0 14 11 26 26 26h23c14 0 25-12 25-26z" />
<glyph glyph-name="long-arrow-left" horiz-adv-x="1000" unicode="&#xea93;" d="M774 313c14 0 26 11 26 26v22c0 15-12 26-26 26h-412v110c0 14-8 18-18 8l-136-137c-10-10-10-26 0-36l136-136c10-11 18-7 18 7v110h412z" />
<glyph glyph-name="long-arrow-right" horiz-adv-x="1000" unicode="&#xea94;" d="M226 313h412v-110c0-14 8-18 18-7l136 136c11 10 11 26 0 36l-136 137c-10 10-18 6-18-8v-110h-412c-14 0-26-11-26-25v-23c0-15 12-26 26-26z" />
<glyph glyph-name="long-arrow-up" horiz-adv-x="1000" unicode="&#xea95;" d="M537 76v412h110c14 0 18 8 8 18l-137 136c-10 11-26 11-36 0l-136-136c-11-10-7-18 7-18h110v-412c0-14 11-26 26-26h23c14 0 25 12 25 26z" />
<glyph glyph-name="award" horiz-adv-x="1000" unicode="&#xeace;" d="M910 785c-7 38-36 55-78 50-15-2-20 0-17 15h-631c2-12 2-18-15-16-49 7-78-16-83-67-7-62 2-123 29-179 30-64 68-79 141-57 18 5 25 1 34-14 28-45 65-83 115-106 9-4 9-8 5-16-21-45-29-94-36-142-1-11 2-13 12-13 73 0 147 1 221 0 15 0 13 9 12 18-6 45-14 89-33 131-5 11-5 16 7 22 52 23 89 62 119 110 7 12 13 17 28 11 14-6 29-7 43-10 36-6 64 7 83 36 46 69 59 146 44 227z m-657-225c-15-2-29-6-45-9-25-4-42 9-55 28-24 33-33 71-39 110-2 15-3 30-4 38 0 23 2 40 8 55 9 24 52 34 71 16 3-3 3-7 3-11 14-74 33-146 67-214 3-7 3-11-6-13z m129-35c-11-9-18 0-25 9-47 70-76 148-97 228-1 2-1 4-1 6 1 8 3 14 12 16 9 1 15-2 18-12 6-23 13-46 21-68 18-54 40-105 73-152 7-9 10-19-1-27z m507 207c-2-46-8-92-30-133-31-59-57-54-115-38-9 3-5 7-3 11 33 69 53 142 67 217 0 4 0 7 4 10 25 20 67 5 73-26 3-14 6-27 4-41z m-198-548c-1 25-16 39-41 40-16 0-31 0-46 0-85 0-170 0-254 0-28 0-44-14-44-39-1-33 0-66 0-99h-99v-236h585v236h-102c0 33 1 65 1 98z" />
<glyph glyph-name="atom" horiz-adv-x="1000" unicode="&#xeacd;" d="M955-61c7 7 12 15 18 23 3 7 7 13 10 20 2 4 4 9 5 14 2 4 3 9 5 13 4 16 7 32 7 49 0 102-83 185-185 185-42 0-80-14-111-38l-79 96c8 19 13 39 13 61 0 48-23 90-58 117 0 3 1 6 2 9 11 31 22 62 30 94 2 7 5 12 8 15 10-2 21-4 31-4 65 0 118 52 118 117s-53 117-118 117-117-52-117-117c0-43 23-80 57-100 0-4-1-8-4-13-16-29-31-58-45-88-1-3-2-5-4-7-15 6-31 9-49 9-82 0-149-67-149-149 0-12 2-23 5-34l-92-52c-23 42-67 71-118 71-75 0-135-60-135-134 0-74 60-134 135-134s134 60 134 134c0 8-1 15-2 22 1 1 2 1 3 2l102 34c17-22 39-38 65-48 41-18 88-14 132 13l0 0 92-76c-19-29-31-64-31-102 0-102 83-185 185-185 55 0 103 25 137 62 1 1 2 3 3 4z" />
<glyph glyph-name="book-alt" horiz-adv-x="1000" unicode="&#xead1;" d="M782 849v-146h121v-852c-8 0-15-1-23-1-196 0-393 0-589 0-104 0-192 83-193 186-2 222-2 445 0 668 0 87 62 144 153 145 120 2 240 1 360 1 49 0 97 0 146 0 7 0 15-1 25-1z m78-944v747h-78v-538h-27c-155 0-310 1-465-1-28-1-58-9-85-20-40-19-57-60-50-109 5-39 33-66 77-74 14-3 28-5 42-5 151 0 302 0 454 0h132z m-380 639c-47 0-94 0-141 0-15 0-28-3-28-20 0-18 13-22 28-21 94 0 188 0 281 0 16 0 31 3 30 22 0 17-15 19-29 19-47 0-94 0-141 0z m0 67c47 0 94 1 141 0 15 0 29 2 29 20 1 19-14 22-30 22-93 0-186 0-279 0-15 0-30-3-30-22 0-19 16-20 31-20 46 1 92 0 138 0z m0-176c-47 0-95 0-143 0-14 0-26-3-26-20 0-17 12-20 27-20 95 0 191 0 286 0 14 0 27 4 26 20 0 17-12 20-27 20-47 0-95 0-143 0z m305-445h-502c-6 0-14-2-18 1-8 6-17 15-18 23-1 6 11 14 18 20 3 2 10 1 14 1 156 0 312 0 467 0 42 0 42 0 39-45z" />
<glyph glyph-name="book" horiz-adv-x="1000" unicode="&#xead2;" d="M391 140c39-13 77-27 105-59v13c0 150 0 300 0 450 0 15-5 25-16 33-2 2-4 3-6 4-30 22-65 34-100 44-72 21-147 32-222 39-16 1-33 1-50 2v-480c29-2 57-4 86-6 69-7 137-19 203-40z m113-47v-12c23 27 53 41 85 52 86 31 177 44 269 50 13 1 27 2 40 2v481c-7 0-13 0-19-1-38-3-77-6-115-11-59-8-117-20-173-40-28-11-56-23-78-43-6-6-9-12-9-21 0-152 0-304 0-457z m409 495v-417c-3-1-5-1-7-1-89-2-176-13-261-35-54-14-107-29-145-70-19 23-46 36-74 47-89 34-183 48-278 56-20 1-40 2-61 3v417h-24v-455c7 0 14-1 21-1 85-3 168-12 251-30 59-13 119-26 166-68 19 20 44 32 70 42 93 32 191 45 290 53 25 2 51 3 77 4v455h-25z" />
<glyph glyph-name="brainstorming" horiz-adv-x="1000" unicode="&#xead3;" d="M886 645c-34 70-87 121-156 154-104 50-213 65-324 38-135-34-215-125-250-257-10-35-13-70-14-106 0-5 1-11 3-16 6-17 6-34 0-52-10-28-22-55-34-82-11-27-25-52-33-80v-8c2-2 1-5 2-8 4-15 13-22 27-22 8-1 15-1 22-4 11-6 14-16 5-26-14-16-10-35 10-44l24-9c5-2 7-5 2-8-16-10-15-24-9-38 2-5 4-9 9-11 6-4 11-8 17-11 13-8 16-19 15-32-1-9-2-18-5-27-13-34 23-78 61-76 30 0 57 8 85 16 11 3 21 7 31 11 7 3 10 1 11-6 6-29 12-58 18-87 0-1 1-3 2-4h3c16 9 34 12 50 18 101 31 201 62 301 93 7 2 9 5 8 11-6 38-10 76-15 113-2 9 0 17 5 25 29 44 62 86 91 131 27 44 54 89 64 141 17 90 15 179-26 263z m-385-251c-12 10-23 19-34 29-2 2-4 2-7 1-6-2-12-4-18-6-3 0-4-2-5-5-3-15-7-30-10-45h-39c-4 15-8 30-11 45-1 4-2 5-5 5-6 2-12 4-18 6-3 1-4 1-7-1-11-10-22-19-33-29-1-1-4-1-5-1-10 7-20 14-30 21 7 14 13 28 20 42 1 4 1 6-1 9-4 4-8 9-11 14-2 2-3 3-6 3l-43-4c-4-1-6-1-7 3-4 11-7 21-11 32 2 1 3 2 5 3 12 7 24 14 37 21 2 2 3 3 3 6 0 6 0 13 0 19 0 3-1 4-3 6-13 6-25 14-38 21-1 1-2 2-4 3 3 11 7 22 12 33 0 1 2 2 4 2 14-1 28-2 42-4 4 0 8 0 10 5s6 9 10 13c2 2 2 4 1 7-7 14-13 28-20 43l30 20c1 1 3 0 5-1 11-9 22-19 33-28 2-2 4-3 7-1 6 2 12 3 18 5 3 1 4 2 5 5 3 15 7 30 11 46h39c3-16 7-31 10-46 1-3 2-4 5-5 6-2 12-3 18-5 3-2 4-2 7 0 11 10 22 20 33 29 2 2 3 3 6 1 9-6 19-13 29-20-5-11-9-20-14-31-2-4-4-9-6-13-1-2 0-4 1-6 4-5 8-10 12-15 1-3 3-3 6-3 14 1 28 2 42 4 4 1 6 0 8-4 3-10 7-21 10-31-10-6-19-11-28-17-5-3-10-5-14-8-1-1-3-3-3-4 0-7 1-14 0-21 0-2 1-3 3-5 13-7 25-14 38-21 1-1 2-2 5-3-4-11-8-22-12-33-1-1-3-3-4-2-14 1-28 2-42 3-5 1-8 1-11-4-2-5-6-9-10-13-1-2-2-4 0-7 6-14 13-28 19-43-10-7-20-14-30-21-1 0-4 0-4 1z m259-75c8-5 17-10 25-15 1 0 2-1 3-2-2-7-5-15-8-22 0-1-1-2-2-2-10 1-19 2-29 3-3 0-6 0-7-3s-5-6-7-10c-1-1-2-2-1-4 5-10 9-19 14-30-7-4-14-9-21-14 0 0-2 0-3 1-7 7-15 13-23 20-1 1-2 1-4 0-4-1-9-2-13-3-2-1-3-2-3-4-3-10-5-20-7-31h-27c-2 11-5 21-7 31 0 2-1 3-3 4-5 1-9 2-13 3-2 1-3 1-4 0-8-7-15-14-23-20-1-1-3-1-3-1l-21 14c5 10 9 20 13 29 1 3 1 4 0 6-3 3-5 7-8 10-1 2-2 2-4 2-10-1-20-2-29-3-3 0-4 0-5 3-2 7-5 14-7 21 1 1 2 2 3 2l25 15c2 1 3 2 2 4v13c1 2 0 2-2 3l-26 15c0 1-1 1-2 2 2 8 5 15 8 23 0 1 2 1 2 1 10-1 20-1 29-3 3 0 5 0 7 4 2 3 5 6 7 8 1 2 1 3 1 5-5 10-9 20-14 30 7 4 14 9 21 14 0 0 2 0 3-1 8-6 15-13 23-20 1-1 2-1 4 0 4 1 9 2 13 3 2 1 3 2 3 4 2 10 5 20 7 31h27c3-11 5-21 7-31 1-2 1-3 3-4 5-1 9-2 13-3 2-1 3-1 4 0 8 7 15 14 23 20 1 1 3 2 4 1 6-5 13-10 20-14-3-8-6-14-9-21l-5-9c0-2 0-3 1-4l8-11c1-2 2-2 4-2 10 1 20 2 29 3 3 0 4 0 5-3 3-7 5-14 8-21-7-4-14-8-20-12-3-1-7-3-9-5-2-1-2-2-2-3v-14c0-1 0-2 2-3z m88 232c0 0-1-1-3-1-9 1-19 2-28 3-3 0-5 0-7-3s-5-6-7-9c-1-2-2-3-1-5 5-9 9-19 14-30-7-4-14-9-21-14-1 0-2 0-3 1-8 7-15 13-23 20-1 1-2 1-4 0-4-1-9-2-13-3-2-1-3-2-3-4-2-10-5-20-7-31h-27l-7 31c0 3-1 3-4 4-4 1-8 2-12 4-2 0-3 0-4-1-8-7-16-13-23-20-1-1-3-1-3-1l-21 14c5 10 9 20 13 30 1 2 1 3-1 5-2 3-5 7-7 10-1 2-2 2-4 2-10-1-20-2-29-3-3 0-4 0-5 3-3 7-5 14-8 21 2 1 3 2 4 2 8 5 17 10 25 15 2 1 3 2 3 4-1 4-1 8 0 13 0 2-1 3-3 4-9 5-17 10-25 14-2 1-2 1-4 2l9 23c0 1 1 1 2 1 10 0 20-1 29-2 3-1 5 0 7 3s4 6 7 9c1 1 1 2 1 4-5 10-9 20-14 30 7 5 14 10 21 14 0 1 2 0 3-1 8-6 15-13 23-19 1-2 2-2 4-1 4 1 9 3 13 4 2 0 2 1 3 3 2 10 5 21 7 31h27c2-10 5-20 7-31 0-2 1-3 3-3 5-1 9-2 13-4 2-1 3-1 4 1 8 6 16 13 23 20 1 1 2 1 4 0 7-5 13-9 20-14-3-7-6-14-9-21-2-3-3-6-5-9 0-1 0-3 1-4 3-3 5-7 8-10 1-2 2-3 4-2 10 1 19 2 29 3 3 0 4 0 5-3 2-7 5-14 7-22-6-4-13-7-19-11-4-2-6-3-10-6 0 0-1-1-1-2v-14c0-2 0-3 2-4l25-14c1-1 2-1 4-3-3-7-6-15-9-23z m-441 98c-53 0-97-43-96-97 0-53 43-97 97-97 53 1 96 44 96 98 0 53-43 96-97 96z m256-243c-36 0-65-29-65-65 0-37 29-65 65-65 36 0 65 29 65 65 0 36-29 65-65 65z m63 260c-37 0-66-29-65-65 0-36 29-65 65-65 36 0 65 29 65 65 0 37-28 65-65 65z" />
<glyph glyph-name="certificate-alt-1" horiz-adv-x="1000" unicode="&#xead4;" d="M630 286h-130v0h-131c-9 0-14-4-15-12-2-12 4-18 17-18h176l83 0c7 0 13 1 15 8 5 13-2 22-15 22z m212 66c15 0 25 7 29 19 2 6 1 13 1 19 0 20-10 31-30 31h-341s-228 0-342 0c-7 0-14-2-21-6-10-8-9-19-10-31-1-22 14-32 32-32 68 0 137 0 206 0h345c43 0 87 0 131 0z m-289-150c26 0 52 0 79 0 10 0 14 5 14 15 0 11-4 15-16 15-23 1-46 1-69 1-63 0-127 0-190-1-12 0-17-4-17-15 0-10 5-15 16-15 43 0 87 0 130 0 17 0 35 0 53 0z m-304 268c84 1 168 0 251 0v1h252c22 0 32 10 32 31v7c0 19-11 30-31 30-169 0-338 0-508 0-13 0-23-7-27-18-2-6-1-12-1-18-3-23 14-33 32-33z m751 245c0 15 2 14-14 14-137 0-274 0-411 0-188 0-375 0-563 0-10 0-12-3-12-13 0-58 0-117 0-176v-503c0-6 0-11 9-11 65 1 130 0 195 0 141 0 283 0 424 0 21 0 20 0 21 21 0 10-3 11-12 11-96 0-192 0-288 0-102 0-204 0-306 0-9 0-11 2-11 11 0 47 0 95 0 142 0 159 0 318 0 477 0 8 2 9 10 9 153 0 305 0 458 0v0h47c137 0 274 0 411 0 8 0 10-2 10-10 0-71 0-142 0-213 0-135 0-271 0-406 0-8-2-10-10-10-36 0-72 0-108 0-22 0-22 0-22-22-1-8 2-10 10-10 50 0 101 1 152 0 8 0 10 3 10 11 0 226 0 452 0 678z m-159-642l102 0c8 0 10 2 10 10 0 58 0 115 0 173v410c0 17 0 16-17 16-63 0-125 0-187 0h-435c-85 0-171 0-256 0-9 0-11-2-11-11 0-109 0-219 0-328 0-86 1-173 0-259 0-9 3-11 12-11 19 1 39 0 58 0 174 0 349 0 523 0 5 0 9 0 9 7-1 6 0 10-8 10-18-1-35 0-52 0h-288c-75 0-150 0-226-1-10 0-12 3-12 13 1 35 0 69 0 104 0 150 0 301 0 451 0 8 3 9 10 9 33 0 67 0 100 0l385 0c122 0 245 0 368 0 9 0 11-1 11-10 0-59 0-118 0-176 0-127 0-254 0-381 0-7-2-10-9-10-29 1-58 1-87 0-6 0-14 4-14-8 1-12 9-8 14-8z m-106-66c-16 1-30 6-43 16-2 1-3 1-4-2-4-12-8-24-13-36l-7-23c1 0 2 0 3 0 8 2 16 3 24 4 2 1 3 0 4-1 6-6 12-11 18-17 0 0 0 0 0 0 6 19 13 37 19 56 1 2 0 3-1 3z m54 15c0 1-1 3-3 1-13-10-27-15-43-16-2 0-2-1-2-3 7-18 13-36 20-54 0-2 1-2 2-1 4 4 8 7 11 11 4 6 9 8 16 6 7-2 13-3 20-4-2 7-5 14-7 21-4 12-9 26-14 39z m-95 121c-2 0-4-1-5-3-1-2-2-4-2-6-1-2 0-2 1-3 3 0 6-2 9-4 2-1 4-4 6-3 2 0 4 3 6 4l0 1c1 0 1 1 0 2-3 4-7 7-11 10-1 1-2 2-4 2z m-9-91c1-1 2-1 2 0 3 5 7 8 11 12 1 1 1 1 1 2l-3 6c-1 0-1 1-2 1 0 0 0 0 0 0-5-3-11-5-15-10-2-2-1-4 0-6 2-3 4-4 6-5z m14 93c0-1 0-1 0-1 5-3 9-7 12-11 1-1 1-2 3-1 1 1 3 2 5 3 1 1 2 1 1 2-2 5-4 9-8 13-1 2-3 3-5 3l0 0c-3-1-8-6-8-8z m47 7c-1 10-6 11-14 7l-1-1c-1 0-1-1 0-2 3-4 4-9 5-15 0-1 0-2 1-1 2 0 4-1 7-1 1 0 1 1 2 2 0 2 0 5 0 7h0c0 1 0 3 0 4z m-74-46l0-3c1-2 1-3 3-2 3 0 6 0 9 0 2 0 4 0 7 0 1 0 1 0 1 1 1 2 2 4 2 6 1 2 0 2-1 2-4 2-9 3-13 4-6 1-9-2-8-8z m7 11c4 0 7-1 10-2 3-1 5-3 7-2 2 1 3 4 4 6 1 1 1 2 0 3-3 2-6 4-10 5-8 5-12 2-12-8 0-1-1-2 1-2z m-2-50c1-1 1 0 2 0 3 3 7 5 10 7 4 2 4 2 4 7-1 1-1 2-1 3 0 1-1 1-1 1-6-1-12-2-17-5-1-1-2-2-2-5 0-3 3-6 5-8z m-5 17c1-1 1-1 3 0 3 2 7 3 12 3 4 1 4 1 4 7 0 0 0 1 0 2s0 2-1 2c-4 0-8 1-11 0-10-1-12-6-7-14z m51 75c-4 0-6-2-8-5-1-1-1-1 0-2 3-3 4-6 6-10 1-1 1-4 3-4 1-1 3 0 5 0 4 1 4 1 3 5-1 4-2 8-4 12-1 2-2 4-5 4z m-9-126c0 4 1 9 3 13 1 2 1 3-2 4-1 1-2 2-3 3-2 1-2 0-3-1-2-3-4-6-6-10-4-8-1-12 8-12 2-1 3 0 3 3z m57-3c3 1 8 6 9 8 0 1-1 1-1 1-5 3-9 8-12 12-1 1-1 1-2 0l-6-3c-1 0-2 0-1-2 3-5 5-10 9-14 1-1 2-2 4-2 0 0 0 0 0 0z m28 36c-5 0-11 2-16 4-1 1-1 0-2-1-1-1-2-3-3-5-1-1-1-2 0-2 3-2 7-5 10-6 9-4 12-2 13 8 0 1 0 2-2 2z m9 29c-1 2-2 3-2 4-1 2-1 1-2 1-4-2-7-3-11-4-2 0-4 0-5-1-2-2-1-4-1-6-1-4-1-4 3-4 2 0 3 0 5 0 2 0 4 0 6 0 7 1 9 4 7 10z m-61-68c-2 4-3 8-4 12-1 5-1 5-5 5l-4 0c0 0-1 0-1-1 0-6-1-12 1-18 1-2 3-3 5-3 3 0 5 1 8 3 1 1 1 1 0 2z m59 48c1 2 0 5-1 7 0 1 0 1-1 1-6-2-11-1-16-1-1 0-2 0-2-1-1-2-1-4-2-6 0-1 0-2 1-2 4-2 9-3 13-4 6 0 8 2 8 6z m-56-46c1-3 2-5 6-5 3 1 5 3 7 5 1 1 2 1 0 2-2 3-4 6-6 10-1 1-1 4-3 5-1 0-4-1-6-1-2 0-3-2-2-4 1-4 2-8 4-12z m39 15c1 2 2 3 3 5 0 2 0 2-1 3-5 1-8 3-12 6-3 2-3 2-6-1-1-1-2-1-3-2-1-1-1-2 0-3 2-2 4-5 7-7 2-2 4-4 7-4 3 0 4 1 5 3z m-1 54c5 1 11 2 16 5 1 1 3 3 3 5-1 4-3 6-6 9-1 0-1 0-2-1-3-3-6-5-10-7-4-2-4-2-3-7 0-1 0-2 0-3 0 0 1-1 2-1z m-38 60c-2 0-2-1-2-2 1-3 1-6 1-10 0-2-1-5 0-7 1-2 4-1 7-2 1-1 2-1 2 1 1 3 2 6 3 10 2 9-2 13-11 10z m24-6c-3 1-5 1-8 1-1 0-1 0-2-1 0-4 0-7-1-11-1-2-3-4-2-6 0-2 3-3 5-4l1 0c1-1 1-1 2 0 3 4 5 7 7 11 0 2 1 3 1 5 0 2-1 4-3 5z m-45-127l0 0c1 0 2 1 1 2-1 3-1 7 0 10 0 2 1 5 0 7-2 2-5 2-7 3-2 0-2 0-3-2-1-3-2-6-3-10-2-10 3-12 12-10z m52 67c0 22-19 41-41 41-24 1-42-18-42-41-1-23 18-42 41-42 23 0 42 18 42 42z m-84-53l1 0c0 0 1 0 1 1 2 5 5 10 8 15 1 0 1 1 0 1-2 2-3 4-5 5l-1 1c0 0-1 0-1-1-3-2-5-4-8-7-7-8-4-12 5-15z m90 103c-2 1-4 1-5 2-2 1-3 0-3-1-1-4-3-6-4-9-2-2-4-4-4-6 1-2 3-4 5-6 1-1 1-1 2 0 4 3 7 6 9 9 2 2 3 4 3 6 0 2-1 4-3 5z m5-10c0 0 0 0-1-1-3-5-7-8-11-12-1 0-1-1 0-2 1-2 2-4 3-6 0 0 0-1 1 0 5 2 10 4 14 8 1 1 2 2 2 4 0 0 0 1 0 1 0 3-5 7-8 8z" />
<glyph glyph-name="file-alt" horiz-adv-x="1000" unicode="&#xeb08;" d="M827 640c-55 56-110 112-167 165-13 13-28 25-45 34-14 7-28 11-44 11l-298 0c-81 0-142-52-156-132-1-2-2-3-2-5v-726c4-5 2-11 4-17 15-62 63-108 127-118 2 0 4-1 6-2h495c16 5 32 7 47 14 49 24 79 63 88 117 1 2 0 5 3 6v562c-8 38-33 65-58 91z m-19-151c-1-159-1-318-1-478 0-34-12-60-43-76-13-7-26-8-41-8-149 0-298 0-448 0-51 0-83 32-83 84 0 113 0 227 0 340 0 113 0 227 0 340 0 33 14 59 44 74 12 7 25 8 38 8l267 0c15 0 25-6 30-21 5-11 5-23 5-36 1-42 1-85 1-128 0-31 14-45 45-45l127-1c3 0 6 0 9 0 48-4 50-21 50-53z m-92-103c-145 0-289 0-433 0-11 0-15-1-14-4 0-10 1-19 0-29-1-5 4-5 17-5 71 0 142 0 213 0 72 0 145 0 217 0 11 0 14 0 14 4-1 10-1 20 0 30 0 3-4 4-14 4z m-438 45c39 0 78 0 117 0 40 0 80 0 119 0 6 0 8 1 8 8 0 17 0 34 0 51 0 7-2 8-8 8-79 0-158 0-238 0-6 0-8-1-7-8 0-16 0-33-1-49 0-9 3-10 10-10z m438-111c-145 0-289 0-433 0-11 0-15-1-14-5 0-9 1-19 0-28-1-5 4-6 17-6 71 0 142 0 213 0 72 0 145 0 217 0 11 0 14 1 14 5-1 10-1 19 0 29 0 4-4 5-14 5z m0-69c-145 0-289 0-433 0-11 0-15-1-14-5 0-9 1-19 0-28-1-5 4-6 17-6 71 1 142 0 213 0 72 0 145 1 217 0 11 0 14 1 14 5-1 10-1 20 0 29 0 4-4 5-14 5z m-128-99c-84 0-167 0-250 0-7 0-9-1-9-4 1-10 1-19 0-29 0-5 3-5 11-5 41 0 81 0 122 0 42 0 84 0 126 0 6 0 8 0 8 4 0 10 0 20 0 30 0 3-2 4-8 4z m-283 0c-12 0-24 0-35 0-1 0-1-1-1-4 0-10 0-19 0-29 0-5 0-5 1-5 6 0 11 0 17 0 6 0 12 0 18 0 0 0 1 0 1 4 0 10 0 20 0 30 0 3-1 4-1 4z m283-73c-84 0-167 0-250 0-7 0-9-1-9-5 1-9 1-18 0-28 0-5 3-6 11-6 41 1 81 1 122 1 42 0 84 0 126-1 6 0 8 1 8 5 0 10 0 20 0 30 0 3-2 4-8 4z m-283 0c-12 0-24 0-35 0-1 0-1-1-1-5 0-9 0-18 0-28 0-5 0-6 1-6 6 1 11 1 17 1 6 0 12 0 18-1 0 0 1 1 1 5 0 10 0 20 0 30 0 3-1 4-1 4z" />
<glyph glyph-name="file-pdf" horiz-adv-x="1000" unicode="&#xeb1e;" d="M842 850h-666c-44 0-79-36-79-80v-840c0-44 35-80 79-80h647c44 0 80 36 80 80v859c0 34-27 61-61 61z m-7-556v-364c0-7-5-12-12-12h-647c-6 0-11 5-11 12v840c0 7 5 12 11 12h489c14 0 36-10 45-21l16-18c10-12 20-24 30-35 14-16 28-32 41-48l18-21c10-11 20-37 20-52v-293z m-94 1c-10 10-32 15-66 15h-4c-22 0-47-2-74-5-13 7-26 15-36 24-28 26-51 62-66 102 1 3 2 6 3 10 4 19 7 79 7 82l0 4c2 6 6 23 4 34 0 2-1 5-2 8l-3 7c-4 9-13 18-26 18l-7 0c-15 0-28-8-31-20-10-35 0-88 18-156l-4-11c-13-31-29-63-44-90l-1-3c-15-29-28-54-40-75l-13-6s-22-12-27-15c-44-26-72-55-77-79-2-10 1-18 8-23l12-6c6-2 11-4 17-4 31 0 67 39 116 124 57 19 121 34 177 42 43-24 96-41 129-41 6 0 12 1 16 2 6 1 12 6 16 11 2 4 4 13 5 18l0 22c-1 4-4 8-7 11z m-456-162c7 16 28 44 59 69 1 1 3 3 5 4-30-45-50-65-64-73z m191 437c0 2 0 3 1 5 2-3 5-8 10-17 4-10 4-22 4-32v-3c-1-6-7-27-10-41-5 22-8 42-8 60 0 5 1 18 3 28z m-55-309c6 12 13 24 20 36 17 33 28 58 36 80 17-30 37-55 61-75 2-2 5-4 8-6-48-10-89-21-125-35z m309 0c-1 0-4-1-9-1-17 0-45 7-74 19 32 3 55 1 69-3 17-5 19-10 19-9l0 0c-1-2-4-5-5-6z" />
<glyph glyph-name="file-image" horiz-adv-x="1000" unicode="&#xeb16;" d="M549 337c18 0 32 14 33 32 0 18-14 33-32 34-19 0-34-15-34-34 0-18 15-32 33-32z m163 186c-12 1-25 0-39 0v37c0 14-2 16-16 16h-22c-9 0-13-4-13-13v-40h-277c-17 0-19-1-19-18v-277h-36c-14 0-16-3-17-17v-21c1-10 3-13 14-13 13-1 25 0 39 0v-39c0-11 3-14 14-14h24c9 0 14 4 14 13-1 13-1 26-1 40h278c17 0 18 1 18 18v277h37c13 0 16 3 16 17 1 7 1 13 0 21 0 11-3 13-14 13z m-91-286c-15 19-29 36-44 56-4 5-10 5-14-1-3-3-5-6-7-9-4-6-11-6-15-1-10 11-19 22-28 33-6 5-13 5-17 0-5-6-10-12-14-18-5-5-11-6-15-3-4 3-9 3-12 0-2-3-7-2-10 3-1 3-3 6-5 9-1 2-3 3-3 3-1-1-1-1-1-1-10-18-19-35-28-53-2-3-3-3-5-3-8 2-16 2-25 2v218h243l0-235z m221 613h-666c-44 0-79-36-79-80v-840c0-44 35-80 79-80h647c44 0 80 36 80 80v859c0 34-27 61-61 61z m-7-556v-364c0-7-5-12-12-12h-647c-6 0-11 5-11 12v840c0 7 5 12 11 12h489c14 0 36-10 45-21l16-18c10-12 20-24 30-35 14-16 28-32 41-48l18-21c10-11 20-37 20-52v-293z" />
<glyph glyph-name="file-file" horiz-adv-x="1000" unicode="&#xeb12;" d="M842 850h-666c-44 0-79-36-79-80v-840c0-44 35-80 79-80h647c44 0 80 36 80 80v859c0 34-27 61-61 61z m-7-556v-364c0-7-5-12-12-12h-647c-6 0-11 5-11 12v840c0 7 5 12 11 12h489c14 0 36-10 45-21l16-18c10-12 20-24 30-35 14-16 28-32 41-48l18-21c10-11 20-37 20-52v-293z" />
<glyph glyph-name="file-jpg" horiz-adv-x="1000" unicode="&#xeb1a;" d="M575 406c43 1 76 33 76 75 0 44-34 79-77 80-43 0-79-37-77-81 1-41 35-74 78-74z m67-104c-9 12-25 12-35-1-5-9-10-16-15-23-9-14-25-15-36-3-23 27-45 52-67 77-11 12-29 12-39 0-11-14-22-27-32-40-11-13-27-17-36-9-9 7-22 7-27-1-7-8-17-4-24 7-4 7-8 14-12 20-4 7-7 10-9 8 0-1-1-2-1-3-14-26-27-52-41-78-8-15-17-31-24-46-3-6-12-56 5-69 61-1 133-1 203-1h1c150-1 291-1 291-1 16 1 21 11 11 24-38 47-73 92-113 139z m200 548h-666c-44 0-79-36-79-80v-840c0-44 35-80 79-80h647c44 0 80 36 80 80v859c0 34-27 61-61 61z m-7-556v-364c0-7-5-12-12-12h-647c-6 0-11 5-11 12v840c0 7 5 12 11 12h489c14 0 36-10 45-21l16-18c10-12 20-24 30-35 14-16 28-32 41-48l18-21c10-11 20-37 20-52v-293z" />
<glyph glyph-name="file-mp3" horiz-adv-x="1000" unicode="&#xeb1d;" d="M713 248c1 15 1 30 2 45l3 59 2 48 2 59 2 35c0 16 1 32 2 48 0 4 0 9 1 13v2c0 1-1 0-1 1-2-1-5-1-7-1-18-2-37-3-56-5l-55-4-47-3-47-4-47-3-30-3c-2 0-2 0-2-2l-2-46c-1-15-1-29-2-43l-2-55-2-43-2-55c0-10 0-20-1-30 0-1 0-1-2-1-11 6-24 8-36 8-24-1-45-8-62-25-8-8-14-17-16-28 0-1 0-2-1-3v-10c1-3 2-7 3-10 3-12 11-21 21-28 12-8 26-13 41-13 0 0 1 0 1-1h7c1 1 1 1 2 1 4 0 9 0 13 1 19 4 35 13 47 27 7 8 12 18 13 29 1 8 1 16 2 24 0 13 1 26 1 40l2 52c1 13 2 27 2 40 1 19 2 39 3 58l1 34c0 2 1 2 2 2 7 1 14 2 22 3l26 2c11 1 21 2 32 3l27 3c10 1 21 2 32 3l26 3c11 1 21 2 32 3 9 1 18 2 27 3 2 0 3 0 3-2-1-10-2-20-2-30l-2-35c-1-12-1-23-2-34-1-12-1-24-2-36l-2-44c-1-5-1-10-1-15l-2 1c-11 6-23 9-35 9-7 0-15-1-22-2-20-4-36-13-48-29-13-16-16-35-6-54 6-12 16-19 28-25 14-7 29-9 44-7 18 2 34 8 48 19 9 8 16 16 19 27 3 8 3 16 3 24z m-414 63c6 1 10 6 8 12-1 6-6 9-12 8-7-1-14-3-21-6-15-7-26-19-30-34 0-3-1-6 0-8 5-11 17-9 20-1 6 17 17 27 35 29z m449-108c-8 1-11-3-13-10-3-15-12-24-26-28-13-4-18-16-5-22 2-1 6-1 8 0 4 2 7 3 10 5 18 8 30 21 33 41 2 7 0 13-7 14z m-378 92c-2 8-8 10-16 8-5-1-11-2-16-3-35-10-58-33-68-68-3-9 1-15 7-15 8 0 11 4 12 9 3 11 8 20 15 29 14 17 32 26 53 28 8 1 14 4 13 12z m472 555h-666c-44 0-79-36-79-80v-840c0-44 35-80 79-80h647c44 0 80 36 80 80v859c0 34-27 61-61 61z m-7-556v-364c0-7-5-12-12-12h-647c-6 0-11 5-11 12v840c0 7 5 12 11 12h489c14 0 36-10 45-21l16-18c10-12 20-24 30-35 14-16 28-32 41-48l18-21c10-11 20-37 20-52v-293z" />
<glyph glyph-name="apple" horiz-adv-x="1000" unicode="&#xeb3b;" d="M520 534c15 26 39 63 70 98 26 30 77 68 77 68 8 6 7 14-2 18l-61 29c-9 4-21 1-27-7 0 0-45-65-99-205-166 75-323-30-323-212 0-191 146-481 345-394 209-90 346 203 346 394 0 184-142 292-326 211z m-38 62c10 1 19 9 19 19 0 0 6 74-45 126-53 53-127 46-127 46-10-1-18-9-19-19 0 0-6-74 46-126 52-52 126-46 126-46z" />
<glyph glyph-name="ambulance-crescent" horiz-adv-x="1000" unicode="&#xec07;" d="M358 581c-1 0-4 3-5 5 0 3 0 6 0 10h20c1 5 2 9 2 13 2 16 11 26 26 32 2 1 4 2 6 3h12c20-6 33-19 34-40l1-8h22v-14c-1-1-2-1-2-1-39 0-77-1-116 0z m311-419c-13-40 9-85 50-101 6-2 13-3 19-5h19c4 1 7 2 11 3 34 8 60 41 61 76 1 36-24 70-58 79-43 13-88-10-102-52z m38-26c0 22 18 40 40 40 21 0 40-18 40-39 0-21-18-39-39-39-22 0-41 17-41 38z m-518 1c0-38 24-69 61-79 2 0 4-1 6-2h31c15 5 30 11 42 22 26 26 31 66 13 98-19 32-56 48-92 38-35-9-61-41-61-77z m42-1c0 21 18 39 40 39 22 0 40-18 40-39 0-22-18-38-41-38-21 0-39 18-39 38z m706 222c-1 56-1 112-1 168 0 18-15 33-34 33-37 0-74 0-111 0l-546-1c-21 0-35-10-44-27-5-11-10-23-15-34-17-39-33-79-50-119-2-4-5-9-9-10-22-8-34-24-38-45-7-29-12-59-18-88-3-18-5-36-8-54v-20c6-13 15-22 30-23 20-1 40-1 60-2 7 0 11 3 11 11 4 51 51 94 103 95 58 1 104-38 112-95 1-11 1-11 13-11 79 0 158 1 237 1 8 0 11 2 12 10 4 50 48 91 96 95 62 5 105-39 115-82 2-8 3-16 5-25 19 1 37 1 56 3 9 1 15 6 19 13 2 3 4 5 6 8v189c-1 3-1 7-1 10z m-587 24c0-7-3-9-10-9-47 0-94 0-141 0-7 1-15 0-23 0 1 5 1 6 1 8 19 46 38 91 56 137 2 5 6 6 11 6 32 0 64 0 96 0 7 0 10-2 10-9-1-44-1-88 0-133z m222-47c26-32 74-45 117-23-6-9-33-24-51-28-19-4-38-4-58 1-47 13-80 54-83 100-4 53 29 97 74 114 44 16 90 3 118-24-23 12-47 14-72 7-20-6-36-18-49-35-25-34-23-80 4-112z" />
<glyph glyph-name="autism" horiz-adv-x="1000" unicode="&#xec0a;" d="M748 531c-2 49-10 95-52 132-27 24-60 37-90 56-92 57-239 38-318-11-63-40-111-98-135-170-15-47-36-92-22-146 8-33 35-63 35-86 1-64 48-87 83-116 54-45 112-21 130 45 1 6 3 15 6 15 64 11 23 45 15 75 59-11 115-17 173-3 40 9 63 29 64 69 1 27 10 39 37 47 49 14 76 48 74 93z m218-248c-17 27-38 51-56 77-24 32-38 67-24 109 7 20 4 42-3 63-55 177-221 341-495 315-154-14-263-90-323-230-62-143-54-285 40-412 74-100 120-202 89-328-2-9-9-23 7-24 10-1 15 8 18 23 18 120-5 230-86 323-59 68-79 149-83 235-12 228 155 395 389 394 232 6 377-146 424-302 5-16 10-31 5-46-19-56-1-102 34-144 13-17 26-34 39-52 19-24 15-41-16-50-19-5-44-11-40-37 9-57-1-113 1-170 4-67 2-68-66-76-16-2-32-3-48-6-39-8-64-30-73-70-2-9-7-22 8-25 12-2 12 11 13 18 9 44 39 57 79 59 21 1 43 4 64 8 21 4 40 18 42 39 5 62 14 125 7 186-5 38 1 50 34 61 31 11 37 35 20 62z" />
<glyph glyph-name="bandage" horiz-adv-x="1000" unicode="&#xec0b;" d="M445 539c-7 5-18 4-23-3l-120-156c-6-7-5-18 3-23l249-193c8-5 18-4 23 3l121 156c5 7 4 18-3 23l-250 193z m129-209s-6-7-16-14c-8-5-19-9-24-10-4-2-7-3-9-3-27-5-46-9-59-11-9-2-16 3-16 12 0 13-1 33-4 60 0 3 0 5 0 7l0 10c1 9 4 17 6 23 3 8 12 20 20 24 13 7 28 6 40-3 8-6 13-15 14-23 2-9 6-13 15-12 9 1 18-2 26-7 16-13 19-37 7-53z m321 411l-119 92c-36 28-87 21-115-15l-206-267 249-192 206 267c27 36 21 88-15 115z m-192-29c3 5 9 5 13 2s5-9 2-13c-3-4-10-5-14-2-4 3-5 9-1 13z m-3-45c3 4 9 5 14 2 4-3 5-10 1-14-3-4-9-5-13-1-4 3-5 9-2 13z m-7-49c3 4 9 5 14 2 4-4 5-10 1-14-3-4-9-5-13-2s-5 10-2 14z m7-47c4-4 5-10 2-14-4-4-10-5-14-2-4 4-5 10-1 14 3 4 9 5 13 2z m-30 167c3 4 9 5 13 2s5-9 2-14c-3-4-9-5-14-1-4 3-5 9-1 13z m-6-44c4 5 10 5 14 2 4-3 5-9 2-13-4-4-10-5-14-2-4 3-5 9-2 13z m-8-47c3 4 9 5 13 1 5-3 5-9 2-13-3-4-9-5-13-2-4 3-5 9-2 14z m-32 79c3 4 9 5 13 1 4-3 5-9 2-13-3-4-9-5-13-2-5 4-5 9-2 14z m-82-154c-3-4-9-4-13-1-5 3-5 9-2 13 3 4 9 5 13 2 4-3 5-9 2-14z m35-27c-3-4-9-5-13-1-5 3-5 9-2 13 3 4 9 5 13 2 5-3 5-9 2-14z m6 49c-3-4-9-5-14-1-4 3-4 9-1 13 3 4 9 5 13 2 4-3 5-10 2-14z m4 52c-4-4-10-5-14-2-4 3-5 9-2 14 4 4 10 4 14 1 4-3 5-9 2-13z m25-128c-3-4-9-5-13-1-4 3-5 9-2 13s9 5 13 2c5-4 5-10 2-14z m8 48c-3-5-9-5-13-2-4 3-5 9-2 13 3 4 9 5 14 2 4-3 4-9 1-13z m7 49c-3-5-9-5-13-2-5 3-5 9-2 13 3 5 9 5 13 2 4-3 5-9 2-13z m-5 46c-4 3-5 9-2 13 3 4 10 5 14 2 4-3 5-9 2-13-4-5-10-5-14-2z m25-170c-3-4-9-5-13-2-4 4-5 10-2 14 4 4 9 5 14 2 4-4 5-10 1-14z m11 46c-4-4-10-5-14-2-4 3-5 9-2 14 4 4 10 4 14 1 4-3 5-9 2-13z m-7 47c-4 3-5 9-2 14 3 4 9 5 14 1 4-3 5-9 1-13-3-4-9-5-13-2z m32-120c-4-4-10-5-14-2-4 4-5 10-2 14 4 4 10 5 14 2 4-4 5-10 2-14z m12 44c-3-4-9-5-14-2-4 3-4 10-1 14 3 4 9 5 13 1 4-3 5-9 2-13z m23-71c-4-4-10-5-14-2-4 4-5 9-2 14 4 4 10 5 14 1 4-3 5-9 2-13z m14 42c-3-4-9-5-13-1-4 3-5 9-2 13 3 4 9 5 13 2 5-4 5-10 2-14z m7 49c-3-4-9-5-13-1-5 3-5 9-2 13 3 4 9 5 13 2 4-3 5-9 2-14z m7 49c-3-4-9-5-14-1-4 3-5 9-1 13 3 4 9 5 13 2 4-3 5-9 2-14z m7 49c-4-4-10-4-14-1-4 3-5 9-2 13 4 4 10 5 14 2 4-3 5-9 2-14z m4 44c-3-4-9-5-13-2-4 4-5 10-2 14 3 4 9 5 14 2 4-4 5-10 1-14z m3 44c-3-5-9-5-13-2-4 3-5 9-2 13 3 4 9 5 14 2 4-3 5-9 1-13z m22-219c-4-4-10-5-14-1-4 3-5 9-2 13 4 4 10 5 14 2 4-3 5-9 2-14z m3 52c-3-4-10-4-14-1-4 3-5 9-1 13s9 5 13 2c4-3 5-9 2-14z m7 49c-4-4-10-4-14-1-4 3-5 9-2 13 4 4 10 5 14 2 4-3 5-9 2-14z m5 44c-4-4-10-5-14-2-4 3-5 9-2 14 4 4 10 5 14 1s5-9 2-13z m2 44c-3-5-9-5-13-2-4 3-5 9-2 13 3 5 9 5 13 2 5-3 5-9 2-13z m5 47c-3-4-9-5-13-1-4 3-5 9-2 13 4 4 9 5 14 2 4-4 5-10 1-14z m28-166c-3-4-9-5-13-2-5 4-5 10-2 14 3 4 9 5 13 2 5-4 5-10 2-14z m2 46c-3-4-9-5-14-2-4 4-4 10-1 14 3 4 9 5 13 2s5-10 2-14z m-744-537c-28-36-21-88 15-115l119-92c36-28 87-21 115 15l206 267-249 192-206-267z m178 147c3 4 9 5 13 2 4-4 5-10 2-14-3-4-9-5-14-2-4 4-4 10-1 14z m-87-144c-3-4-9-5-13-2-4 4-5 10-2 14 3 4 9 5 13 2 5-4 5-10 2-14z m2 46c-3-4-9-5-13-2s-5 10-2 14c3 4 9 5 13 2 4-4 5-10 2-14z m28-166c-4-4-10-5-14-2-4 4-5 10-2 14 4 4 10 5 14 1 4-3 5-9 2-13z m5 48c-3-4-9-5-14-2-4 3-5 9-1 13 3 5 9 5 13 2 4-3 5-9 2-13z m2 43c-3-4-9-5-13-1-4 3-5 9-2 13 3 4 9 5 14 2 4-3 5-9 1-14z m6 44c-4-4-10-5-14-2-4 3-5 9-2 14 4 4 10 5 14 1 4-3 5-9 2-13z m6 49c-3-4-9-5-13-2-4 4-5 10-2 14 3 4 9 5 14 2 4-4 5-10 1-14z m3 52c-3-4-9-5-13-2-4 3-5 10-2 14 3 4 9 5 14 1 4-3 5-9 1-13z m22-218c-3-5-9-5-14-2-4 3-5 9-1 13 3 5 9 5 13 2s5-9 2-13z m3 43c-4-4-10-5-14-2-4 4-5 10-1 14 3 4 9 5 13 2 4-4 5-10 2-14z m4 44c-3-4-9-5-13-2-4 4-5 9-2 14 4 4 9 5 14 1 4-3 5-9 1-13z m7 49c-3-4-9-5-13-2-4 4-5 9-2 14 3 4 10 5 14 1 4-3 5-9 1-13z m7 49c-3-4-9-5-13-2-5 4-5 10-2 14 3 4 9 5 13 2 4-4 5-10 2-14z m21-172c-3-5-9-5-13-2-4 3-5 9-2 13 3 4 10 5 14 2 4-3 5-9 1-13z m3 45c-3-4-9-5-14-2-4 4-5 10-1 14 3 4 9 5 13 2 4-4 5-10 2-14z m7 49c-4-4-10-5-14-2-4 4-5 10-2 14 4 4 10 5 14 2 4-4 5-10 2-14z m-9 61c3 4 9 5 14 2 4-3 5-10 1-14-3-4-9-5-13-1-4 3-5 9-2 13z m32-181c-3-4-9-5-13-2-4 4-5 10-2 14 3 4 9 5 14 2 4-4 5-10 1-14z m6 44c-4-5-10-5-14-2-4 3-5 9-2 13 3 5 10 5 14 2 4-3 5-9 2-13z m8 48c-3-5-9-6-14-2-4 3-4 9-1 13 3 4 9 5 13 2 4-3 5-9 2-13z m32-80c-3-4-9-5-13-1-5 3-5 9-2 13 3 4 9 5 13 2 5-4 5-10 2-14z m82 154c3 4 9 4 13 1 5-3 5-9 2-13-3-4-9-5-13-2-5 3-5 9-2 14z m-35 27c3 4 9 5 13 1 4-3 5-9 2-13-3-4-9-5-13-2s-5 10-2 14z m-6-49c3 4 9 5 13 2 5-4 5-10 2-14-3-4-9-5-13-2-4 4-5 10-2 14z m-4-52c4 4 10 5 14 2 4-3 5-9 2-14-4-4-10-5-14-1-4 3-5 9-2 13z m-25 128c3 4 9 5 13 2 4-4 5-10 2-14-3-4-9-5-14-2-4 4-5 10-1 14z m-8-48c3 5 9 5 13 2 4-3 5-9 2-13-3-4-9-5-14-2-4 3-5 9-1 13z m-7-49c3 5 9 6 13 2 4-3 5-9 2-13-3-4-9-5-13-2-5 3-5 9-2 13z m5-46c4-3 5-9 2-13-4-4-10-5-14-2-4 3-5 9-2 14 4 4 10 5 14 1z m-25 170c3 4 9 5 13 2 4-4 5-10 2-14-3-4-10-5-14-2-4 4-5 10-1 14z m-11-46c4 5 10 5 14 2 4-3 5-9 2-13-4-5-10-5-14-2-4 3-5 9-2 13z m7-47c4-3 5-9 2-14-4-4-10-4-14-1-4 3-5 9-1 13 3 4 9 5 13 2z m-32 120c4 4 10 5 14 2 4-4 5-9 2-14-4-4-10-5-14-1-4 3-5 9-2 13z m-12-44c3 4 9 5 13 2 5-3 5-9 2-14-3-4-9-4-13-1-4 3-5 9-2 13z m-8 59c-3-4-9-4-13-1-4 3-5 9-2 13 3 4 9 5 14 2 4-3 5-9 1-14z" />
<glyph glyph-name="blood-drop" horiz-adv-x="1000" unicode="&#xec0d;" d="M501 850c14-92 53-175 100-254 31-51 63-101 94-152 39-65 77-131 96-205 39-147-25-292-157-358-184-91-404 25-433 229-10 69 5 134 32 197 33 77 79 146 123 217 44 70 87 141 116 220 13 34 21 70 29 106z m76-913c63-1 130 60 138 124 7 55-28 91-82 83-62-8-120-70-125-133-3-43 26-74 69-74z m-178 411c1 30-18 46-40 37-25-10-42-42-37-68 4-22 24-31 44-21 21 12 31 32 33 52z" />
<glyph glyph-name="blood-test" horiz-adv-x="1000" unicode="&#xec0e;" d="M863 636c22 34 12 80-22 102l-159 101c-34 21-80 11-102-23l-27-43c0 0 0 0 0 0-34 16-74 5-95-27l-39-63c-21-32-13-74 15-97 0 0 0 0 0-1l-295-465c-19-29-14-66 8-90l-4-8c-34-52-18-122 34-155s121-17 155 35l4 7c32-10 67 2 86 31l295 466c1 0 1 0 1 0 33-16 74-5 94 27l40 63c20 32 13 74-16 97 0 0 0 0 0 0l27 43z m-50 32l-27-43c-23-37-13-62 2-72l9-5c7-5 9-14 5-21l-40-62c-4-7-13-9-20-5l-9 6c-16 10-42 8-66-29l-295-465c-4-7-14-9-20-5l-5 3c-14 9-37 9-56-21l-9-16c-16-24-48-31-73-16-25 16-32 49-16 73l9 15c19 30 10 51-4 60l-5 3c-7 4-9 13-4 20l295 466c23 37 13 61-2 71l-9 6c-7 4-9 14-4 20l39 63c5 7 14 9 21 4l9-5c15-10 42-9 65 28l27 43c5 7 14 9 21 5l158-101c7-4 9-14 4-20z m-198-171l-55 35c-13 8-32 4-41-9l-275-435c-9-13-5-32 9-41l2-1-45-71c-9-14-5-33 9-41 14-9 32-5 41 9l45 71 3-1c14-9 32-5 41 9l275 434c9 14 5 32-9 41z m-68-24l-259-400c-2-3-5-4-8-4-2 0-4 0-6 1-4 3-6 9-3 13l260 400c3 5 9 6 13 3 5-3 6-9 3-13z" />
<glyph glyph-name="dna" horiz-adv-x="1000" unicode="&#xec17;" d="M721 604c0 30 1 60 4 90 5 40 21 76 45 109 1 2 2 7 1 9-12 12-24 24-37 38-11-15-21-29-29-44-41-74-45-153-39-234 3-44 7-88 7-132 2-60-15-114-54-161-3-4-6-7-8-10-64 64-127 127-190 190 21 18 44 34 71 44 2 1 7 0 9-2 34-34 68-67 102-101 12-12 24-24 38-38 3 14 5 25 8 37 1 7-1 11-5 16-32 31-64 63-95 95-2 2-5 4-7 6l1 4h105c-2 20-3 38-5 58-16 0-32 0-48 0-44 0-87-6-127-23-99-43-192-143-192-295 0-57 4-113 6-170 2-49-2-98-23-144-8-20-20-39-30-57 13-13 26-26 39-39 2 3 5 6 7 9 44 59 63 126 63 199 0 49-3 99-5 149-2 51-1 101 17 150 9 26 24 50 40 70 64-63 126-126 189-188-21-18-46-32-73-41-3-1-9 0-11 3-34 34-68 68-102 102-9 9-18 18-29 28-3-14-4-26-7-38-1-7 1-12 6-17 28-28 56-56 84-84 2-2 4-4 6-7l0-2c-32-1-64-2-96-4 1-18 2-36 3-55 15 0 29 0 43 0 55 0 108 8 156 34 115 64 174 160 171 292-1 52-7 103-9 154z m-468-605c0 4-1 10-4 13-22 22-44 44-66 66-14 14-29 28-44 43 40 10 79 10 119 9-1 19-2 37-3 56-93 4-179-11-255-71 12-12 24-23 35-34 4-5 7-4 13-1 13 9 28 16 42 25 5 3 9 1 13-3 41-41 82-82 122-123 6-5 11-10 18-17 4 14 7 25 10 37z m708 622c-17-10-34-19-51-29-6-3-10-2-14 3-28 28-57 56-85 85-17 17-34 35-53 54-4-14-7-25-10-36-2-7 0-12 5-17 27-26 54-53 80-80 8-8 17-15 25-23 0-1-1-2-2-3-36-7-73-8-111-5 2-20 4-38 5-57 92-5 177 10 250 69-13 13-26 26-39 39z" />
<glyph glyph-name="dna-alt-2" horiz-adv-x="1000" unicode="&#xec16;" d="M198 119c24-24 48-48 72-72 9 32 7 65 5 97-3 61-9 121 2 182 22 123 132 232 255 249 75 10 55 13 63-53 1-15 7-33-2-44-8-11-27-5-41-8-7-1-13-3-25-7 28-27 54-52 79-76 11-11 12 0 13 7 8 40 5 80 2 120-4 66-8 131 12 194 15 48 41 90 77 125 20 21 50 22 72 4 21-17 26-47 7-71-10-13-8-20 3-31 33-31 65-63 97-96 8-9 14-10 24-2 27 20 58 16 75-6 19-25 15-53-10-77-57-54-125-81-202-86-15-1-21 2-21 18 0 22-1 44-4 66-2 18 5 24 22 23 7 0 14-1 17 1-21 22-42 43-62 63-10-49-1-103 2-156 7-119-27-220-122-296-53-42-114-63-181-67-13 0-19 2-19 17 0 24-2 49-4 73-1 12 3 16 15 17 16 1 31 4 47 6 11 2 13 6 5 15-27 27-53 54-82 84-9-25-12-46-12-67-2-65 8-130 4-195-4-79-35-146-89-202-21-22-51-23-74-5-20 16-25 44-8 69 7 11 5 16-4 24-34 33-67 66-99 100-9 9-15 10-25 3-25-16-53-11-69 10-18 22-17 51 4 72 58 58 130 87 212 91 10 1 15-2 16-13 0-25 2-50 4-75 1-14-3-20-17-19-11 0-23 0-34-6z m352 160c-36 36-73 73-110 108-5 5-10 18-18 5-6-9-25-17-8-33 28-27 55-55 82-82 25-25 25-25 54 2z m47 54c1 6-2 9-4 11-33 33-65 67-98 99-14 13-23-5-32-11-11-8 1-13 6-17 30-31 61-62 93-93 5-5 10-16 17-12 8 5 13 16 18 23z m-451-228c-5-3-13-5-17-11-4-7 5-10 9-14 31-31 62-61 92-93 15-16 18-5 23 6 4 6 1 11-4 16-30 30-61 61-91 91-3 3-5 6-12 5z m608 615c-5-13-19-21-9-32 30-32 61-62 93-93 9-9 17 1 24 4 6 3 4 7 0 11-36 36-71 72-108 110z" />
<glyph glyph-name="dna-alt-1" horiz-adv-x="1000" unicode="&#xec15;" d="M619 506c-71-6-143-13-217-20 15-15 29-27 44-38 6-5 7-8-1-13-25-16-50-33-75-49-4-3-7-5-11-1-54 48-105 99-130 169-17 45-18 91-10 137 5 25 28 41 55 40 23-1 45-21 46-45 1-10 4-10 12-8 87 24 173 48 260 71 6 2 8 3 3 9-19 28-15 60 8 79 23 19 57 17 79-6 40-40 76-83 95-137 25-71 14-138-23-203-26-47-65-83-108-115-64-47-133-89-198-134-25-17-49-35-70-57-1-1-2-2-5-6 77 7 152 14 226 20 2 5-2 6-4 8-14 12-27 25-41 36-5 5-6 7 0 11 26 17 52 34 77 51 4 3 7 4 11 1 52-48 102-98 129-166 18-47 18-94 4-141-8-24-27-38-52-38-22 0-42 16-48 39-2 9-6 9-13 7-59-17-119-33-179-49-25-7-50-14-74-21-6-1-9-2-6-10 9-28 0-54-23-69-24-14-52-10-72 11-38 41-72 84-88 138-21 73-6 141 33 204 32 51 78 87 126 120 54 38 109 74 164 111 24 16 48 33 70 53 3 3 6 5 9 7-1 2-2 3-3 4z m-283-483c5-13 12-23 18-33 4-7 9-8 17-6 97 23 195 46 292 69 19 4 20 6 17 24-2 14-2 14-16 11l-197-39c-44-8-87-17-131-26z m299 681c0 0-2 0-4-1l-292-69c-22-5-22-5-18-27 1-8 4-11 13-9 64 13 127 25 191 38 43 8 87 17 130 26 7 1 13 2 7 11-6 9-12 18-17 27-2 3-4 6-10 4z m23-573c-2 4-3 7-5 9-14 24-14 24-42 20-83-13-166-25-248-37-32-4-32-4-37-35 0-1 0-2 0-2-2-7 1-9 8-8 12 2 24 4 36 6 96 16 191 31 288 47z m-315 424c6-8 11-15 15-22 5-6 10-8 18-7 87 12 173 23 260 35 33 5 32 5 38 37 2 8 1 12-9 10-27-5-55-9-83-14-57-9-114-18-171-27-22-4-44-8-68-12z" />
<glyph glyph-name="disabled" horiz-adv-x="1000" unicode="&#xec14;" d="M872 766h-744c-36 0-65-29-65-66v-700c0-36 29-66 65-66h744c36 0 66 30 66 66v700c0 37-30 66-66 66z m-262-627c-30-49-72-81-128-94-115-29-230 49-248 166-13 82 24 163 95 206 2 1 4 2 7 4 2-19 3-37 4-56 0-2-2-5-4-7-45-40-63-91-50-149 13-57 50-95 107-113 79-24 166 25 188 105 1 2 1 4 2 8 10-22 20-43 29-63 0-2-1-5-2-7z m59-39c-3 9-7 17-11 24-24 54-48 107-72 160-2 6-5 8-11 8-62 0-124 0-185 0h-9c-1 12-2 24-3 36l-10 192c0 3 0 6 0 10-1 12-2 22-14 31-26 19-27 56-6 80 23 25 60 27 86 5 23-21 25-58 3-82-4-4-9-8-14-11-4-2-5-4-5-9 2-36 4-72 6-110h139v-51h-136c1-13 1-25 3-36 0-2 4-3 7-3 25-1 50-1 75-1 31 0 63 0 94 1 8 0 11-3 15-10 23-53 47-105 70-158 2-2 3-4 4-8 18 8 35 16 53 24 7-16 14-31 21-47-33-15-66-29-100-45z" />
<glyph glyph-name="crutch" horiz-adv-x="1000" unicode="&#xec13;" d="M544 431v-18c0-107 0-214 1-322 0-10-3-12-13-12-32 0-64 0-95 0-4 0-10 2-10-5 0-8 5-6 10-6l97 0c3 0 9 1 9-2 1-6-5-5-8-6l-98-27c-2 0-5 0-7-1-4-2-3-6-3-9 1-5 5-3 7-2 18 9 34 2 50-5 17-7 35-14 53-21 6-2 8-5 7-11-1-7-6-4-10-4-32 0-65 0-97 0-4 0-10 2-10-6 0-8 5-6 9-6 13 0 26 0 40-2-14-8-28-16-42-24-7-4-9-8-5-16 16 9 34 17 49 28 18 13 37 16 58 14 6 0 8-1 9-7 1-28 1-28-25-33-27-5-54-10-81-15-7-1-12-1-13-11-4-31-31-54-61-52-33 2-57 27-57 61 0 64 0 129 0 194 0 16 0 33 0 49 1 5-1 7-6 8-37 9-53 30-53 67 0 89 0 178 0 268 0 9 0 19 3 28 7 25 29 43 56 43 34 0 68 0 102 0 9 0 11-3 11-11-1-106-1-213 0-319 0-4 0-7 0-10 0-4 2-6 5-6 4 0 6 2 6 5 0 4 0 7 0 11 0 106 0 212 0 318 0 10 3 12 13 12 32-1 65 0 97 0 16 0 29-5 41-15 36-29 71-58 107-87 17-14 25-31 24-52 0-3 0-5 0-8 0-8-2-17 1-24 4-7 15-1 23-2 7-1 11-5 11-12 0-41 2-83-1-124-1-20-12-37-24-54-14-21-30-42-45-63-8-11-12-23-12-38 1-72 0-145 0-218 0-3 1-7 0-10-1-7-6-11-13-11-6 1-10 5-10 12-1 7-1 13-1 20 0 69 0 138 1 207 0 14-4 26-12 37-15 21-30 42-45 63-12 17-22 35-25 56-1 5-1 9-1 14 0 34 0 69 0 103 0 14 3 18 17 18 2 0 5-1 7 0 4 1 9-3 11 3 1 5-1 9-5 12-15 11-29 23-47 36z m112-296c17 25 37 48 52 73 9 15 17 29 18 46 1 32 0 63 0 95 0 5-1 7-6 7-5 0-5-3-5-7v-18c0-20 0-40-1-60 0-31-26-56-58-57-29 0-57 23-58 53-2 26-1 53-1 79 0 5 1 10-7 10-7-1-4-6-4-10-1-30 0-60 0-89 0-10 2-19 6-28 16-35 42-62 64-94z m-229 715c65 0 118-54 117-119 0-64-54-117-118-117-66 0-118 54-118 121 1 63 55 115 119 115z m46-998c14 21 28 41 43 61 6 8 17 6 26 7 3 0 2-3 2-5 5-39-33-72-71-63z m29 61c-14-20-26-37-38-54-3-4-5-3-9-1-13 8-21 20-27 34-2 6 1 8 6 9 22 4 43 8 68 12z m-28 119c23 6 44 12 64 17 5 2 6 0 6-4 0-12 0-23 0-35 0-4-1-5-5-4-21 8-42 17-65 26z" />
<glyph glyph-name="brain" horiz-adv-x="1000" unicode="&#xec11;" d="M782 234c15-6 39-7 51 3 17 13 28 30 34 51 25 82-32 200-62 255-8 14-27 29-42 34-72 24-86 40-84 56 1 9 7 15 16 19 14 6 27 20 26 36-2 25-10 46-24 61-28 32-77 39-114 39-13 0-26-1-38-3-16-1-29-17-29-33v-759c0-16 0-29 0-30-1-1 4-14 14-26 14-16 32-24 54-24 34 0 72 18 99 35 14 8 13 22-1 30-25 16-54 37-70 60-8 14-4 28 4 29 7 0 16-12 27-24 15-17 40-34 64-47 14-8 37-7 51 2 69 45 105 88 103 125-2 45-58 71-59 71l-14 6s-14 7-13 7c0 0-11 6-26 12-33 13-72 22-97 12-6-2-11-6-15-11-7-8-14-16-22-14-7 2-10 17 0 30 6 9 15 16 26 20 42 17 104-4 141-22z m-166 327c7-1 11-15 17-30 10-31 40-62 63-82 13-11 20-23 16-30-5-6-19-3-31 7-27 22-68 63-78 108-3 16 5 28 13 27z m-132-568v759c0 16-13 32-29 33-12 2-25 3-38 3-36 0-86-7-114-39-14-15-22-36-24-61-1-16 12-30 26-36 8-4 15-10 16-19 2-16-12-32-83-56-16-5-35-20-43-35-30-54-87-172-63-254 7-21 18-38 35-51 12-10 36-9 51-3 37 17 99 39 140 22 11-4 20-11 27-20 10-13 7-28-1-30-7-2-14 5-21 13-4 5-9 9-15 12-25 10-64 0-97-12-15-6-26-12-26-12 1-1-5-4-13-7l-14-7c-1 0-57-26-59-70-2-38 34-81 105-127 14-9 37-10 51-2 24 14 50 32 66 48 11 12 20 25 27 24 8 0 13-14 4-28-16-24-47-46-72-61-14-8-15-22-1-31 27-16 64-34 97-34 22 0 40 8 53 24 11 13 16 26 15 27 0 0 0 14 0 30z m-196 426c-4 7 3 19 16 30 23 20 53 51 63 82 5 15 10 29 17 30 8 1 16-11 13-27-10-45-51-86-78-108-12-10-27-13-31-7z" />
<glyph glyph-name="brain-alt" horiz-adv-x="1000" unicode="&#xec10;" d="M911 421c-2 4-3 8-3 13-8 84-49 149-120 195-6 5-10 10-13 16-24 40-53 75-90 103-62 46-117 48-174 3-11-8-18-7-29-1-68 39-132 32-190-22-29-26-54-55-73-89-3-4-6-8-11-10-53-29-89-74-114-129-11-25-20-52-13-81 1-5 0-10-2-15-13-34-17-70-16-106 0-11-1-21 0-32 3-35 10-70 31-99 8-11 11-22 14-35 15-62 46-113 101-146 14-8 27-17 39-27 43-34 90-47 144-30 5 2 10 2 16 0 27-7 54-5 79 9 9 6 16 5 25-1 28-18 57-27 90-15 5 2 10 1 15 0 61-11 116 13 147 66 5 8 11 13 18 17 44 25 81 58 101 104 14 31 29 61 38 92 23 74 24 148-10 220z m-428 208c-3-23-2-48-1-72 1-11-2-16-14-19-42-11-78-33-105-67-13-15-13-27-2-36 11-9 23-7 35 7 18 22 40 38 67 48 19 7 19 7 19-13 0-36 0-73 0-110h0c0-37-1-75 0-113 1-14-4-14-15-9-38 14-61 37-53 81 1 10 0 19 1 29 0 15-8 24-20 25-13 0-23-8-24-22-2-26-4-52 1-77 2-9-1-13-7-17-18-12-35-25-50-40-13-13-15-25-5-35 10-11 23-9 37 4 13 13 28 24 43 35 6 4 10 4 16 0 20-14 42-24 64-33 8-3 12-7 12-16 0-49 0-97 0-145 0-19-34-43-52-37-6 2-7 5-7 10-1 25-3 49-11 73-1 5 1 9 4 12 6 7 12 14 17 21 7 11 6 22-4 30-10 8-20 7-30-2 0 0-1 0-1-1-11-20-27-22-47-15-13 4-24-4-27-16-3-14 3-23 18-27 28-8 31-13 34-42 0-6 1-12 1-18 3-22-1-26-23-28-24-2-43 8-61 21-17 12-34 24-52 35-37 21-55 58-64 99-2 8 3 10 9 12 16 6 31 12 46 22 19 12 25 29 21 51-7 32-21 61-37 89-7 12-20 16-31 9-11-7-14-18-7-31 11-22 22-44 30-68 3-9 0-14-8-18l-17-7c-26-11-32-9-40 18-15 51-15 102 2 152 4 15 13 20 28 22 30 5 51-5 69-28 13-16 25-32 34-50 7-13 20-18 31-13 12 6 16 20 9 34-14 27-33 51-54 74-25 25-55 33-88 27-25-3-27-2-18 21 14 34 35 62 63 86 8 7 13 9 17-4 5-13 12-24 21-35 14-16 31-19 50-10 15 7 27 18 38 29 22 22 44 43 65 65 12 12 13 23 3 33-9 10-22 10-33-1-25-23-48-47-72-70-19-18-19-17-31 6-7 14-5 27 3 40 19 31 43 58 72 82 23 20 49 22 77 11 7-3 14-7 20-10 23-12 37-28 34-58z m371-408c-7-22-10-22-30-14-32 13-33 14-20 46 7 15 15 30 22 46 7 14 4 28-7 34-12 6-24 1-32-12-15-29-30-58-35-91-3-18 2-32 16-44 15-11 32-18 48-24 7-3 11-6 7-13-14-38-42-63-76-82-6-3-9 0-13 4-9 13-19 25-32 34-8 6-9 12-7 20 2 10 4 20 6 30 1 13-6 21-18 23-13 2-22-4-26-16-3-10 0-25-8-31-8-5-21-1-31-2-5 0-10-2-15-3-14-4-21-13-18-26 2-13 12-21 27-17 40 9 67-11 89-41 6-8 5-14 0-22-20-29-51-39-83-23-13 7-22 9-33-3-6-8-15-7-25-3-26 11-33 23-33 51 0 61 0 121 0 181 0 20 2 22 22 19 19-3 36-10 50-22 13-11 26-12 35-2 10 11 8 23-6 35-24 22-52 33-83 33-15 0-17 5-19 18-3 36 1 63 42 76 17 6 28 9 40-4 6-6 12-11 18-16 12-11 24-11 33-1 9 9 9 22-2 33-11 12-23 21-36 30-6 4-9 9-8 17 1 17 1 33 0 50-1 16-10 24-24 23s-20-9-20-25c0-9-1-18 0-27 3-23-7-37-28-45-11-5-14-4-14 8 0 35 0 69 0 104v15h0c0 38 0 75 0 113 0 10 3 18 10 25 38 40 64 42 107 9 30-23 53-52 72-84 5-8 4-12-3-18-22-16-29-17-53-4-16 10-30 22-38 40-7 15-19 20-32 13-12-6-15-18-9-32 19-40 53-63 94-75 11-3 23-1 34 4 8 5 17 10 26 15 26 19 26 19 49-5 23-24 40-52 49-84 3-10 1-15-11-13-35 3-63-11-86-37-17-20-33-40-45-64-8-15-6-29 6-35 13-6 25-1 33 14 13 25 30 47 50 66 27 23 66 13 76-21 14-49 13-99-2-148z" />
<glyph glyph-name="blood" horiz-adv-x="1000" unicode="&#xec0f;" d="M801 778h-320c-4 19-11 37-23 51-13 14-29 21-48 21-24 0-45-9-59-27-10-12-16-28-20-45h-90c-14 0-26-11-26-26s12-26 26-26h87c0-8 1-16 1-22-86-1-156-72-156-158v-446c0-87 71-158 158-158h23v-48c0-6 4-13 10-15l32-14c5-2 14-2 20 0l36 13c6 2 10 9 10 15v49h23c88 0 158 71 158 158v446c0 86-69 157-156 158 0 6 0 14 0 22h288v-850c0-14 12-26 26-26 15 0 26 12 26 26v876c0 15-12 26-26 26z m-409 12c3 4 7 8 18 8 4 0 6-1 9-4 3-4 6-9 8-16h-41c1 5 3 9 6 12z m43-64c0-8 0-15-1-22h-52c-1 6-1 14-2 22h55z m-214-244c-10 0-18 8-18 18 0 96 79 175 176 175 9 0 17-8 17-17 0-10-8-18-17-18-78 0-141-63-141-140 0-10-8-18-17-18z m358-137v-216c0-68-51-124-115-124h-112c-63 0-115 56-115 124v216h342z" />
<glyph glyph-name="doctor-alt" horiz-adv-x="1000" unicode="&#xec18;" d="M719 211c19-53 1-97-30-137-6-7-17-14-8-25 31-40 35-90 47-136 4-15 15-28 0-42-10-9-21-10-32-2-16 12-9 26-4 42 28 83-49 170-134 153-22-4-45-7-60-28-7-11-19-12-30-5-9 6-14 14-13 26 1 11 8 21 18 21 55-4 109 29 164 3 17-9 25 1 35 13 51 65 38 121-47 164 53 42 85 91 102 151 2 8 4 15 13 21 44 25 47 67 32 108-9 24-7 45-4 69 9 68-2 144-61 176-53 29-111 66-178 67-61 1-120-11-176-33-89-33-134-101-129-196 2-33 6-65-5-99-11-33-4-68 30-91 6-4 11-10 13-16 17-65 52-117 107-161-16-6-28-10-38-16-41-22-50-60-48-102 0-32-3-64 42-76 35-8 45-47 29-77-17-33-56-44-88-26-31 18-39 54-20 85 7 11 24 18 19 36-13 41-8 83 1 131-117-75-187-171-200-306-5-51-5-53 48-53 187 0 374 0 561 0 74 0 148 0 223 1 19 0 36-2 37 27 9 121-96 285-216 333z m-55 288c-1-36-30-63-67-62-35 1-64 30-64 66 0 36 33 67 70 65 35-2 62-33 61-69z m-56 137c4-16 7-28 10-43-39-1-71-14-95-47-17-25-45-14-71 26 51 21 107 28 156 64z m-202-70c29-1 54-32 54-66-1-37-29-64-66-63-37 0-67 32-66 68 1 36 35 62 78 61z m23-351c9 40-23 50-47 66-40 27-66 66-84 111-10 26-6 57-43 74-21 10-18 48-3 71 13 19 39 11 59 15 13 2 6-16 3-24-9-33-4-63 20-88 22-23 51-33 82-24 34 11 54 35 63 70 3 12-5 32 19 30 23-1 16-20 18-32 11-48 57-80 102-69 45 10 75 61 64 106-4 14-9 26-16 44 30-3 42-29 72-28 17 1 13-33 10-53-1-13-5-31-25-26-17 5-16-5-17-15-13-74-48-134-114-173-9-6-14-12-16-23-10-52-91-81-134-48-6 4-13 12-13 16z m-152-239c24-14 48-8 59 20 10 26-1 42-29 47 14-12 28-24 16-44-6-12-18-19-32-14-25 8-21 29-21 49-19-21-20-43 7-58z" />
<glyph glyph-name="doctor" horiz-adv-x="1000" unicode="&#xec19;" d="M850-106c-4 39-5 77-9 116-5 57-14 115-31 170-9 30-23 56-51 72-26 16-55 25-85 34-10 3-8-4-7-9 2-25 0-50-5-75-2-7 1-11 8-15 28-16 45-41 47-74 1-34-6-68-8-102-1-23-4-46-13-68-12-26-32-36-60-31-10 2-17 7-16 19 2 11 10 15 21 13 13-3 20 3 26 14 4 8 6 16 6 24 4 39 8 77 12 115 2 35-16 61-47 68-32 8-59-7-72-39-11-26-19-53-29-79-6-15-11-30-14-45-4-20 0-28 19-36 9-4 13-11 10-20-3-10-10-12-20-11-27 6-43 25-43 53 0 12 2 23 5 34 12 41 28 80 43 120 15 35 43 55 81 57 8 1 11 3 13 10 4 25 5 49 3 73-1 12-6 18-18 20-10 2-19 5-29 9-9 4-13 2-16-8-11-38-27-74-45-109-9-17-19-33-31-53-4 25-8 46-12 67-2 10-2 18 2 27 3 5 9 11 3 17-10 9-21 16-31 24 0 1-2 0-2-1-10-8-22-16-30-26-4-6 5-14 7-21 0-2 1-4 1-5-4-26-9-52-13-80-4 4-5 5-6 7-27 43-48 87-64 135-4 10-3 25-12 28-7 3-19-5-29-8-5-1-10-3-12-9-4-12-9-23-12-35-18-77-14-153 10-228 4-11 8-17 21-20 25-5 38-32 30-56-9-25-36-37-60-26-24 11-34 40-20 62 5 8 4 14 2 22-26 72-33 147-21 223 3 18 9 35 13 53-35-10-69-18-99-36-22-13-39-30-49-54-12-30-19-60-24-91-14-72-18-146-24-218-1-20 8-33 23-42h739c19 9 26 23 24 44z m-559 616c7-2 10-6 13-12 15-36 34-71 62-99 22-23 48-40 81-43 41-5 73 14 100 41 29 29 48 63 64 100 2 5 2 11 10 12 27 2 49 45 44 72-1 7-4 14-12 15-10 0-9 6-7 12 5 23 8 46 9 65 0 21-1 37-5 53-7 24-19 45-42 57-13 7-23 14-28 29-2 6-7 10-12 14-17 14-38 20-59 23-65 6-124-8-177-45-37-26-62-60-67-106-3-30-2-60 4-90 1-6 4-13-7-13-6 0-9-4-11-9-9-27 13-69 40-76z" />
<glyph glyph-name="drug-pack" horiz-adv-x="1000" unicode="&#xec1a;" d="M759 850h-519c-31 0-56-25-56-56v-888c0-31 25-56 56-56h519c31 0 56 25 56 56v888c0 31-25 56-56 56z m-441-179c30 30 79 29 109-1 12-13 19-29 21-46h-153c2 17 10 34 23 47z m129-69c-3-15-10-29-22-41-30-29-79-29-108 2-11 11-18 25-21 39h151z m-128-176c30 29 79 29 109-2 12-13 19-29 21-46l-153 0c2 18 9 35 23 48z m129-70c-3-15-10-29-22-40-30-30-79-29-109 1-10 11-17 25-20 40l151-1z m-21-286c-30-30-79-29-109 2-11 11-17 25-20 39l151 0c-3-15-10-29-22-41z m-130 63c2 17 9 34 23 47 30 30 79 29 108-1 13-13 20-30 22-46h-153z m291 538c30 30 79 29 108-1 13-13 20-29 22-46l-153 0c2 17 9 34 23 47z m129-69c-3-15-10-29-22-41-31-29-79-29-109 2-11 11-18 25-20 39h151z m-129-176c31 29 80 29 109-2 13-13 20-29 21-46l-152 0c1 18 9 35 22 48z m130-70c-3-15-11-29-22-40-31-30-79-29-109 1-11 11-18 25-20 40l151-1z m-21-286c-31-30-80-29-109 2-11 11-18 25-21 39l151 0c-2-15-10-29-21-41z m-130 63c1 17 9 34 22 47 31 30 79 29 109-1 13-13 20-30 21-46h-152z" />
<glyph glyph-name="drug" horiz-adv-x="1000" unicode="&#xec1b;" d="M996 120c-28-79-198-139-388-139-190 0-359 60-387 139-5 12-4 12-4-1v-87c0-90 183-162 391-162 208 0 392 72 392 162v87c0 13 0 13-4 1z m-600-87c61-17 133-27 212-27 213 0 386 73 386 162 0 38-31 73-84 100-11 6-30 6-42 1l-473-220c-12-5-12-13 1-16z m-174 135c0-35 26-67 71-94 11-6 30-6 42-1l471 218c12 6 11 13-1 16-58 15-125 23-197 23-214 0-386-73-386-162z m175 167c67 17 146 27 231 27 14 0 28 0 42-1 11 0 22 7 25 18 10 31 15 65 15 99 0 181-134 329-308 352-13 1-24-8-24-21v-460c0-10 9-17 19-14z m-83-27c10 4 18 16 18 27v474c0 13-11 23-23 21-175-23-309-171-309-352 0-124 65-234 162-297 9-6 16-9 16-8 0 0 0 1 0 2 0 52 52 99 136 133z" />
<glyph glyph-name="first-aid-alt" horiz-adv-x="1000" unicode="&#xec1c;" d="M912 607h-149c-9 0-17 8-17 18v146c0 10-8 18-18 18h-456c-10 0-18-8-18-18v-146c0-10-7-18-17-18h-149c-49 0-88-39-88-87v-498c0-48 39-87 88-87h42v-5c0-10 16-18 35-18h142c19 0 35 8 35 18v5h330v-5c0-10 16-18 35-18h142c19 0 35 8 35 18v5h28c49 0 88 39 88 87v498c0 48-39 87-88 87z m-508 79c0 10 7 18 17 18h158c10 0 18-8 18-18v-61c0-10-8-18-18-18h-37v1c0 9-8 17-17 17h-50c-10 0-18-8-18-17v-1h-36c-10 0-17 8-17 18v61z m230-456c0-4-4-8-9-8h-71c-5 0-9-4-9-9v-71c0-5-3-8-8-8h-60c-4 0-8 3-8 8v71c0 5-4 9-9 9h-71c-5 0-8 4-8 8v60c0 5 3 9 8 9h71c5 0 9 3 9 8v71c0 5 4 9 8 9h60c5 0 8-4 8-9v-71c0-5 4-8 9-8h71c5 0 9-4 9-9v-60z" />
<glyph glyph-name="first-aid" horiz-adv-x="1000" unicode="&#xec1d;" d="M872 569h-744c-36 0-65-29-65-65v-494c0-36 29-66 65-66h744c36 0 66 30 66 66v493c0 37-30 66-66 66z m-193-362h-129v-146c-16-3-33-5-50-5-16 0-33 2-50 5v146h-129c-3 16-5 33-5 49 0 17 2 34 5 51h129v145c17 3 33 5 50 5 17 0 34-2 50-5v-145h129c3-17 5-33 5-50 0-17-2-34-5-50z m-319 458c0 10 8 18 17 18h246c10 0 18-8 18-18v-44h77v79c0 31-24 56-55 56h-326c-30 0-55-25-55-56v-79h78v44z" />
<glyph glyph-name="patient-file" horiz-adv-x="1000" unicode="&#xec2e;" d="M350 655c3 0 6 0 9 0h220c23 0 47-1 70 1 17 0 26 9 26 23 0 15-10 26-26 28-18 2-37 4-56 5-23 1-38 6-37 35 0 4-1 8-2 12-3 16-12 25-28 27-15 1-30 2-45 1-27-2-38-13-39-41-1-25-9-32-33-34-20-1-40-3-60-5-15-2-27-14-26-28 0-13 11-23 27-24z m150 111c10 0 18-9 18-19 0-11-7-19-18-19-11 0-20 8-19 20 0 10 9 19 19 18z m192-96c-5-21-20-29-40-29-102-1-204-1-306 0-21 0-31 8-38 28l-1 4c-1 2-9 3-18 3h-68c-9 0-17-7-17-16v-731c0-9 8-17 17-17h558c9 0 17 8 17 17v731c0 10-8 17-17 17-27 0-53 0-80 0-2 0-7-4-7-7z m-290-179h42c9 0 17 7 17 17v42c0 9 7 17 16 17h45c9 0 17-8 17-17v-42c0-9 7-16 16-16h44c9 0 16-8 16-17v-45c0-9-7-16-16-16h-43c-9 0-16-8-16-17v-44c0-9-8-16-17-16h-45c-9 0-16 7-16 16v44c0 9-8 16-17 16h-43c-10 0-17 8-17 17v44c0 10 7 17 17 17z m283-479h-369c-10 0-17 8-17 17v12c0 9 7 16 17 16h369c9 0 16-7 16-16v-12c0-9-7-17-16-17z m0 98h-369c-10 0-17 8-17 17v12c0 9 7 16 17 16h369c9 0 16-7 16-16v-12c0-9-7-17-16-17z m0 98h-369c-10 0-17 8-17 17v12c0 9 7 16 17 16h369c9 0 16-7 16-16v-12c0-9-7-17-16-17z" />
<glyph glyph-name="patient-bed" horiz-adv-x="1000" unicode="&#xec2d;" d="M933 551l-387 285c-25 19-66 19-91 0l-387-285c-23-17-40-50-40-79v-557c0-36 29-65 65-65h814c37 0 66 29 66 65v557c0 29-17 62-40 79z m-840-636v557c0 8 7 22 13 26l387 286c1 0 4 1 7 1s6-1 7-1l387-286c7-4 13-18 13-26l0-557h-814z m279 552h86c5 0 10-4 10-10v-85c0-6 5-11 10-11h72c5 0 10 5 10 11v85c0 6 5 10 10 10h86c5 0 10 5 10 11v71c0 6-5 10-10 10h-86c-5 0-10 5-10 10v86c0 6-5 10-10 10h-72c-5 0-10-4-10-10v-85c0-6-5-11-10-11h-86c-5 0-10-4-10-10v-71c0-6 5-11 10-11z m446-208c-13 0-23-9-25-21 0 0 0-4 0-4v-121h-35v14c0 8-15 15-33 15h-433l-2 1c-15 19-38 30-60 30v141c0 18-15 33-33 33-18 0-33-15-33-33v-346c0-18 15-32 33-32s33 14 33 32v93h34v-19c0-10 13-26 30-30 76-20 220-8 264 12 36 15 121 9 167 4 18-2 33 4 33 14v19h35v-93c0-13 11-24 25-24 13 0 24 11 24 24v266s0 4 0 4c-2 12-12 21-24 21z" />
<glyph glyph-name="paralysis-disability" horiz-adv-x="1000" unicode="&#xec2c;" d="M458 767c0-46-37-84-83-84s-84 38-84 84 38 83 84 83 83-37 83-83z m254-683c-16 8-35 1-43-15-45-94-141-154-244-154-150 0-271 121-271 271 0 84 38 163 106 215 14 11 16 31 6 45-11 14-32 17-46 6-83-64-131-161-131-266 0-185 151-336 336-336 128 0 247 75 302 191 8 16 1 35-15 43z m194-25l-173 279c-9 13-25 16-43 16h-218c-9 0-17 1-17 2l1 2v35c0 9 1 16 3 16 1 0 2 0 3 0h191c22 0 39 17 39 39 0 21-17 39-39 39h-191c-1 0-2 0-3 0-2-1-3 6-3 15v91c0 35-29 63-63 63h-18c-34 0-62-28-62-63v-315c0-35 28-63 62-63h301c9 0 20-6 25-13 30-46 127-192 127-192 11-19 39-23 60-9 22 13 30 39 18 58z" />
<glyph glyph-name="operation-theater" horiz-adv-x="1000" unicode="&#xec2b;" d="M698 331c0-27 22-49 49-49 28 0 50 22 50 49 0 27-22 50-50 50s-49-23-49-50z m-35 16c-9 0-16-7-16-16v-96c0-8 7-16 15-16h117c9 0 16 7 16 16 0 9-7 17-16 17h-95c-3 0-6 2-6 5v74c0 9-6 16-15 16z m-439-122h398c6 0 10 5 10 10v76c0 6-4 12-10 12h-356c-29 0-53-23-53-50v-38c0-5 5-10 11-10z m358 321c63-43 126-58 142-35 16 23-22 76-85 119-63 42-126 58-142 35-16-23 22-77 85-119z m38 6c-4-5-18-2-31 8-14 9-22 20-19 25s18 2 31-7c14-9 22-21 19-26z m73-22c-4-5-18-2-31 7-14 10-22 21-19 26 4 5 17 2 31-7 14-10 22-21 19-26z m-93 94c3 5 17 1 30-8 14-9 22-21 19-26-3-5-17-1-31 8-14 9-22 21-18 26z m-74 23c4 5 18 2 31-7 14-10 22-21 19-26s-18-2-31 7c-14 10-22 21-19 26z m215-111c8 13 8 29-1 42-13 17-34 42-66 66l52 66c2 3 4 7 4 11v111c0 10-8 18-18 18-10 0-18-8-18-18v-105l-50-64s-42 28-94 38c-12 2-24-2-31-12l0 0s60-4 128-52c74-52 94-101 94-101z m128-331h-738c0-47 38-85 85-85h239s0 0 0 0v-94c-8-1-14-8-14-18v-61c0-9 6-17 14-17v-65c0-8 7-15 16-15h58c9 0 16 7 16 15v255h239c47 0 85 38 85 85z" />
<glyph glyph-name="herbal" horiz-adv-x="1000" unicode="&#xec21;" d="M878 480c26 0 47 0 68 0 11 0 24 1 24-13 0-7-9-15-16-21-6-84-28-163-74-234-36-57-82-104-139-141-9-6-22-11-33-11-150 0-300 0-449 0-10 0-20 4-28 9-128 86-199 206-212 359-1 10 0 20-13 25-4 1-7 10-6 16 1 4 7 9 11 11 6 1 13 0 20 0 115 0 231 0 347 0 141 0 282 1 422 0 14 0 24 4 33 15 39 43 78 86 118 128 1 1 2 2 2 3 15 15 33 19 41 8 12-15 4-28-6-39-35-37-71-74-110-115z m-797-58c-21-4-16-16-14-26 11-64 34-125 73-177 29-40 66-75 100-111 7-8 17-16 25-1 1 3-4 14-9 18-42 35-78 76-107 123-30 48-49 100-60 156-1 6-5 12-8 18z" />
<glyph glyph-name="hospital" horiz-adv-x="1000" unicode="&#xec22;" d="M469-7h-14c-8 0-15-6-15-14v-20c0-8 7-15 15-15h14c8 0 14 7 14 15v20c0 8-6 14-14 14z m76 0h-14c-8 0-14-6-14-14v-20c0-8 6-15 14-15h14c8 0 15 7 15 15v20c0 8-7 14-15 14z m401 849h-892c-32 0-56-26-54-58l56-868c2-32 30-58 61-58h271l-15 157c-3 31 20 57 51 57h156c31 0 54-26 51-57l-15-157h267c32 0 59 26 61 58l56 868c2 32-22 58-54 58z m-225-337c0 12 9 21 20 21h64c12 0 21-9 21-21v-89c0-12-9-21-21-21h-64c-11 0-20 9-20 21v89z m0-220c0 11 9 20 20 20h64c12 0 21-9 21-20v-90c0-11-9-21-21-21h-64c-11 0-20 10-20 21v90z m-441-325c0-12-10-21-21-21h-64c-12 0-21 9-21 21v89c0 12 9 21 21 21h64c11 0 21-9 21-21v-89z m0 235c0-11-10-21-21-21h-64c-12 0-21 10-21 21v90c0 11 9 20 21 20h64c11 0 21-9 21-20v-90z m0 221c0-12-10-21-21-21h-64c-12 0-21 9-21 21v89c0 12 9 21 21 21h64c11 0 21-9 21-21v-89z m182-221c0-11-9-21-21-21h-64c-12 0-21 10-21 21v90c0 11 9 20 21 20h64c12 0 21-9 21-20v-90z m0 221c0-12-9-21-21-21h-64c-12 0-21 9-21 21v89c0 12 9 21 21 21h64c12 0 21-9 21-21v-89z m67 242v-54c0-4-3-6-6-6h-46c-3 0-6 2-6 6v54c0 4-3 7-7 7h-54c-4 0-7 3-7 6v46c0 3 3 6 7 6h54c4 0 7 3 7 7v54c0 4 3 7 6 7h46c3 0 6-3 6-7v-54c0-4 3-7 7-7h54c4 0 7-2 7-6v-46c0-3-3-6-7-6h-54c-4 0-7-3-7-7z m115-463c0-11-9-21-21-21h-64c-12 0-21 10-21 21v90c0 11 9 20 21 20h64c12 0 21-9 21-20v-90z m0 221c0-12-9-21-21-21h-64c-12 0-21 9-21 21v89c0 12 9 21 21 21h64c12 0 21-9 21-21v-89z m182-456c0-12-9-21-20-21h-65c-11 0-20 9-20 21v89c0 12 9 21 20 21h65c11 0 20-9 20-21v-89z" />
<glyph glyph-name="injection-syringe" horiz-adv-x="1000" unicode="&#xec24;" d="M996-88l-226 203c10 13 17 28 20 42l0 2c7 87 1 93-6 99l-475 429c-14 13-35 12-48-2l-17-20-45 40 9 10c29 32 35 69 14 87-21 19-57 10-86-23l-109-121c-30-32-35-69-15-88 21-19 57-9 86 23l9 10 44-40-18-20c-12-13-11-35 3-48l475-429c21-18 101 5 102 5 13 5 27 13 39 24l225-204c6-5 15-4 20 1 5 6 4 14-1 20z m-243 251c-5-21-33-46-53-53-22-7-54-11-65-10l-467 421 18 20c12 13 11 35-3 48l-79 71-36-39c-11-13-22-18-27-19 1 5 5 16 16 29l109 121c12 12 22 17 28 19-1-6-5-17-16-29l-36-40 79-72c14-12 36-11 48 3l18 19 68-61c-1 0-2 0-2-1l-74-82c-5-5-5-14 1-19 5-5 14-4 19 1l74 82c0 0 1 1 1 2l19-17c0-1-1-1-2-2l-55-61c-5-6-5-15 1-20 5-5 14-4 19 1l56 62c0 1 0 1 1 2l19-17c-1-1-1-1-2-2l-74-82c-5-5-4-14 1-19 6-5 14-4 19 1l74 82c1 1 1 1 1 2l20-17c-1-1-2-1-2-2l-23-25c-2-1-3-2-4-3l-60-66c-7-8-8-19-2-24l227-210c0 0 1 0 1 0l42-37s34 3 59 27c29 28 25 66 25 66l-41 38c0 1 0 1 0 1l-10 8-207 192 13 15c0 1 1 1 1 2l262-237c9-25 9-37 1-69z m-95-2c4-3 4-9 1-13-2-2-5-3-7-3-2 0-4 1-6 3l-211 195c-3 4-4 10 0 13 3 4 9 4 13 1l210-196z" />
<glyph glyph-name="laboratory" horiz-adv-x="1000" unicode="&#xec25;" d="M953-46l-298 657c-3 8-6 22-6 30v61c0 8 7 17 15 21 20 12 34 34 34 59 0 38-30 68-67 68h-250c-38 0-68-30-68-68 0-23 12-43 29-55 7-5 14-15 14-23v-70c0-9-3-22-6-30l-303-650c-12-26-11-53 2-73 12-20 36-31 65-31h770c29 0 53 11 66 31 13 20 15 47 3 73z m-687 283l-154-319c-2-3-5-5-8-5-1 0-3 1-4 1-4 2-6 8-4 12l154 319c2 4 7 6 12 4 4-2 6-7 4-12z m461 49h-458c-9 0-13 7-9 14l136 294c4 8 6 21 6 30v120c0 9-5 17-10 17h-11c-12 0-21 10-21 21 0 12 9 21 21 21h250c11 0 21-9 21-21 0-11-10-21-21-21h-14c-8 0-14-7-14-17v-112c0-9 2-22 6-30l128-302c3-7-1-14-10-14z" />
</font>
</defs>
</svg>
